<svg width="130" height="28" viewBox="0 0 130 28" fill="none" xmlns="http://www.w3.org/2000/svg">
<rect width="9.33331" height="9.33331" fill="#5BBFE4"/>
<rect y="9.33331" width="9.33331" height="9.33331" fill="#4A9EEB"/>
<rect y="18.6666" width="9.33331" height="9.33331" fill="#2D68F3"/>
<rect x="9.33331" y="18.6666" width="9.33331" height="9.33331" fill="#4A9EEB"/>
<rect x="9.33331" y="9.33331" width="9.33331" height="9.33331" fill="#6EE2E2"/>
<rect x="18.6666" width="9.33331" height="9.33331" fill="#7AFAE1"/>
<rect x="18.6666" y="18.6666" width="9.33331" height="9.33331" fill="#5BBFE4"/>
<path d="M39.9999 5.58625H44.1902V19.9683H51.7249V23.5638H39.9999V5.58625Z" fill="white"/>
<path d="M54.5537 9.85592H58.6648V23.5638H54.5537V9.85592ZM54.1968 6.16788C54.1968 5.87707 54.2541 5.59947 54.3687 5.3351C54.4832 5.07072 54.6463 4.8416 54.8578 4.64772C55.0781 4.44503 55.3381 4.28641 55.6377 4.17184C55.9373 4.05728 56.2722 4 56.6423 4C57.0124 4 57.3473 4.05728 57.6469 4.17184C57.9466 4.28641 58.2021 4.44503 58.4136 4.64772C58.6339 4.8416 58.8014 5.07072 58.9159 5.3351C59.0305 5.59947 59.0878 5.87707 59.0878 6.16788C59.0878 6.4675 59.0305 6.7495 58.9159 7.01388C58.8014 7.26944 58.6339 7.49416 58.4136 7.68804C58.2021 7.88191 57.9422 8.03613 57.6337 8.15069C57.3341 8.26526 56.9992 8.32254 56.6291 8.32254C56.2678 8.32254 55.9373 8.26526 55.6377 8.15069C55.3381 8.03613 55.0825 7.88191 54.871 7.68804C54.6595 7.48535 54.4921 7.25622 54.3687 7.00066C54.2541 6.73629 54.1968 6.45869 54.1968 6.16788Z" fill="white"/>
<path d="M76.4044 9.85592L70.6542 23.5638H66.9926L61.2557 9.85592H65.6311L68.8036 18.0912H68.83L72.0157 9.85592H76.4044Z" fill="white"/>
<path d="M77.4487 16.7165C77.4487 15.7118 77.6337 14.7689 78.0038 13.8876C78.374 12.9976 78.8939 12.2221 79.5637 11.5611C80.2422 10.9002 81.0442 10.3803 81.9695 10.0013C82.9036 9.61357 83.9347 9.4197 85.0627 9.4197C86.1995 9.4197 87.235 9.61357 88.1691 10.0013C89.112 10.3803 89.9184 10.9002 90.5881 11.5611C91.2667 12.2221 91.791 12.9976 92.1611 13.8876C92.5401 14.7689 92.7296 15.7118 92.7296 16.7165C92.7296 16.9985 92.7163 17.2188 92.6899 17.3774C92.6723 17.536 92.6502 17.6946 92.6238 17.8533H81.5068C81.6214 18.2851 81.7976 18.6728 82.0356 19.0165C82.2823 19.3602 82.5643 19.6554 82.8816 19.9022C83.2076 20.1401 83.5557 20.3252 83.9259 20.4574C84.3048 20.5896 84.6925 20.6557 85.0891 20.6557C85.7324 20.6557 86.292 20.5191 86.7679 20.2459C87.2438 19.9727 87.6051 19.6246 87.8518 19.2016H92.2669C92.0642 19.8008 91.7558 20.3913 91.3416 20.9729C90.9274 21.5457 90.4163 22.0568 89.8082 22.5063C89.2001 22.9557 88.4951 23.317 87.6932 23.5902C86.9001 23.8634 86.0232 24 85.0627 24C83.9435 24 82.9168 23.8105 81.9827 23.4316C81.0486 23.0438 80.2466 22.5195 79.5769 21.8586C78.9071 21.1976 78.3828 20.4265 78.0038 19.5453C77.6337 18.6552 77.4487 17.7123 77.4487 16.7165ZM85.0891 12.6583C84.2343 12.6583 83.5117 12.8742 82.9212 13.306C82.3308 13.7378 81.9034 14.3062 81.639 15.0112H88.3806C88.125 14.315 87.7196 13.751 87.1645 13.3192C86.6093 12.8786 85.9175 12.6583 85.0891 12.6583Z" fill="white"/>
<path d="M95.9021 4.93853H99.9867V15.659L104.534 9.85592H109.319L104.706 15.5664L109.742 23.5638H104.878L101.784 18.2366L99.9867 20.3781V23.5638H95.9021V4.93853Z" fill="white"/>
<path d="M112.055 9.85592H116.166V23.5638H112.055V9.85592ZM111.698 6.16788C111.698 5.87707 111.756 5.59947 111.87 5.3351C111.985 5.07072 112.148 4.8416 112.359 4.64772C112.58 4.44503 112.84 4.28641 113.139 4.17184C113.439 4.05728 113.774 4 114.144 4C114.514 4 114.849 4.05728 115.149 4.17184C115.448 4.28641 115.704 4.44503 115.915 4.64772C116.136 4.8416 116.303 5.07072 116.418 5.3351C116.532 5.59947 116.589 5.87707 116.589 6.16788C116.589 6.4675 116.532 6.7495 116.418 7.01388C116.303 7.26944 116.136 7.49416 115.915 7.68804C115.704 7.88191 115.444 8.03613 115.135 8.15069C114.836 8.26526 114.501 8.32254 114.131 8.32254C113.769 8.32254 113.439 8.26526 113.139 8.15069C112.84 8.03613 112.584 7.88191 112.373 7.68804C112.161 7.48535 111.994 7.25622 111.87 7.00066C111.756 6.73629 111.698 6.45869 111.698 6.16788Z" fill="white"/>
<path d="M122.3 6.07535L125.235 6.04891V9.85592H129.213V13.3589H125.235V18.1705C125.235 18.5935 125.283 18.946 125.38 19.228C125.486 19.5012 125.622 19.7215 125.79 19.889C125.966 20.0476 126.173 20.1577 126.411 20.2194C126.649 20.2811 126.904 20.312 127.178 20.312H129.465L129.438 23.6563H126.781C126.014 23.6563 125.287 23.5902 124.6 23.458C123.921 23.317 123.327 23.0527 122.815 22.6649C122.304 22.2683 121.899 21.7176 121.599 21.0126C121.309 20.2987 121.163 19.3646 121.163 18.2102V13.3589H118.982V10.2393L121.057 9.44613L122.3 6.07535Z" fill="white"/>
</svg>
