<svg version="1.1" viewBox="0.0 0.0 960.0 720.0" fill="none" stroke="none" stroke-linecap="square" stroke-miterlimit="10" xmlns:xlink="http://www.w3.org/1999/xlink" xmlns="http://www.w3.org/2000/svg"><clipPath id="p.0"><path d="m0 0l960.0 0l0 720.0l-960.0 0l0 -720.0z" clip-rule="nonzero"/></clipPath><g clip-path="url(#p.0)"><path fill="#000000" fill-opacity="0.0" d="m0 0l960.0 0l0 720.0l-960.0 0z" fill-rule="evenodd"/><path fill="#efefef" d="m206.7664 223.91869l595.37006 0l0 262.2992l-595.37006 0z" fill-rule="evenodd"/><path fill="#000000" d="m465.64224 470.6873q-0.65625 0 -0.65625 -0.6875l0 -10.140625q0 -0.671875 0.65625 -0.671875q0.65625 0 0.65625 0.671875l0 4.5625l0.03125 0l5.21875 -4.875q0.390625 -0.359375 0.796875 -0.359375q0.4375 0 0.515625 0.3125q0.09375 0.3125 -0.1875 0.578125l-5.078125 4.6875l5.328125 4.9375q0.359375 0.328125 0.21875 0.65625q-0.125 0.328125 -0.5625 0.328125q-0.234375 0 -0.40625 -0.109375q-0.15625 -0.09375 -0.375 -0.296875l-5.46875 -5.015625l-0.03125 0l0 4.734375q0 0.6875 -0.65625 0.6875zm11.761871 0.03125q-2.796875 0 -2.796875 -3.078125l0 -4.296875q0 -0.65625 0.640625 -0.65625q0.65625 0 0.65625 0.65625l0 4.28125q0 1.03125 0.421875 1.53125q0.421875 0.5 1.328125 0.5q1.0 0 1.625 -0.65625q0.625 -0.671875 0.625 -1.78125l0 -3.875q0 -0.65625 0.65625 -0.65625q0.640625 0 0.640625 0.65625l0 6.671875q0 0.671875 -0.625 0.671875q-0.640625 0 -0.640625 -0.671875l0 -0.75q-0.375 0.703125 -1.046875 1.078125q-0.65625 0.375 -1.484375 0.375zm10.163513 0q-0.921875 0 -1.625 -0.40625q-0.703125 -0.40625 -1.03125 -1.125l0 0.828125q0 0.671875 -0.640625 0.671875q-0.640625 0 -0.640625 -0.671875l0 -10.171875q0 -0.65625 0.640625 -0.65625q0.65625 0 0.65625 0.65625l0 4.296875q0.328125 -0.6875 1.03125 -1.078125q0.703125 -0.40625 1.609375 -0.40625q1.03125 0 1.8125 0.5q0.78125 0.484375 1.203125 1.390625q0.421875 0.890625 0.421875 2.140625q0 1.234375 -0.421875 2.140625q-0.421875 0.90625 -1.203125 1.40625q-0.78125 0.484375 -1.8125 0.484375zm-0.28125 -1.03125q1.09375 0 1.75 -0.78125q0.65625 -0.78125 0.65625 -2.21875q0 -1.453125 -0.65625 -2.21875q-0.65625 -0.765625 -1.75 -0.765625q-1.078125 0 -1.734375 0.765625q-0.65625 0.765625 -0.65625 2.21875q0 1.4375 0.65625 2.21875q0.65625 0.78125 1.734375 0.78125zm9.171783 1.03125q-1.84375 0 -2.921875 -1.078125q-1.0625 -1.078125 -1.0625 -2.9375q0 -1.203125 0.484375 -2.109375q0.484375 -0.921875 1.3125 -1.421875q0.84375 -0.515625 1.953125 -0.515625q1.578125 0 2.46875 1.015625q0.90625 1.015625 0.90625 2.796875q0 0.5 -0.5625 0.5l-5.296875 0q0.0625 1.328125 0.765625 2.03125q0.703125 0.6875 1.953125 0.6875q0.53125 0 1.078125 -0.140625q0.546875 -0.140625 1.046875 -0.484375q0.375 -0.25 0.625 -0.09375q0.25 0.140625 0.25 0.4375q0.015625 0.296875 -0.328125 0.515625q-0.53125 0.390625 -1.265625 0.59375q-0.71875 0.203125 -1.40625 0.203125zm-0.203125 -7.09375q-1.109375 0 -1.75 0.6875q-0.640625 0.6875 -0.75 1.796875l4.71875 0q-0.046875 -1.171875 -0.625 -1.828125q-0.5625 -0.65625 -1.59375 -0.65625zm5.871399 7.0625q-0.65625 0 -0.65625 -0.671875l0 -6.671875q0 -0.65625 0.625 -0.65625q0.640625 0 0.640625 0.65625l0 0.84375q0.3125 -0.734375 0.984375 -1.125q0.671875 -0.390625 1.609375 -0.421875q0.5 -0.046875 0.53125 0.515625q0.046875 0.5625 -0.5625 0.625l-0.265625 0.03125q-1.09375 0.09375 -1.671875 0.703125q-0.578125 0.59375 -0.578125 1.625l0 3.875q0 0.671875 -0.65625 0.671875zm5.712372 0q-0.640625 0 -0.640625 -0.671875l0 -6.671875q0 -0.65625 0.625 -0.65625q0.640625 0 0.640625 0.65625l0 0.78125q0.375 -0.734375 1.078125 -1.09375q0.703125 -0.375 1.59375 -0.375q2.765625 0 2.765625 3.078125l0 4.28125q0 0.671875 -0.640625 0.671875q-0.65625 0 -0.65625 -0.671875l0 -4.203125q0 -1.09375 -0.421875 -1.59375q-0.421875 -0.5 -1.359375 -0.5q-1.0625 0 -1.703125 0.671875q-0.625 0.65625 -0.625 1.75l0 3.875q0 0.671875 -0.65625 0.671875zm11.947388 0.03125q-1.84375 0 -2.921875 -1.078125q-1.0625 -1.078125 -1.0625 -2.9375q0 -1.203125 0.484375 -2.109375q0.484375 -0.921875 1.3125 -1.421875q0.84375 -0.515625 1.953125 -0.515625q1.578125 0 2.46875 1.015625q0.90625 1.015625 0.90625 2.796875q0 0.5 -0.5625 0.5l-5.296875 0q0.0625 1.328125 0.765625 2.03125q0.703125 0.6875 1.953125 0.6875q0.53125 0 1.078125 -0.140625q0.546875 -0.140625 1.046875 -0.484375q0.375 -0.25 0.625 -0.09375q0.25 0.140625 0.25 0.4375q0.015625 0.296875 -0.328125 0.515625q-0.53125 0.390625 -1.265625 0.59375q-0.71875 0.203125 -1.40625 0.203125zm-0.203125 -7.09375q-1.109375 0 -1.75 0.6875q-0.640625 0.6875 -0.75 1.796875l4.71875 0q-0.046875 -1.171875 -0.625 -1.828125q-0.5625 -0.65625 -1.59375 -0.65625zm8.340149 7.09375q-1.390625 0 -2.078125 -0.71875q-0.6875 -0.734375 -0.6875 -2.109375l0 -4.078125l-1.0625 0q-0.5625 0 -0.5625 -0.515625q0 -0.5 0.5625 -0.5l1.0625 0l0 -1.828125q0 -0.65625 0.65625 -0.65625q0.640625 0 0.640625 0.65625l0 1.828125l2.015625 0q0.5625 0 0.5625 0.5q0 0.515625 -0.5625 0.515625l-2.015625 0l0 3.953125q0 0.90625 0.375 1.390625q0.390625 0.46875 1.265625 0.46875q0.296875 0 0.5 -0.0625q0.21875 -0.078125 0.375 -0.078125q0.140625 -0.015625 0.234375 0.109375q0.109375 0.109375 0.109375 0.375q0 0.1875 -0.078125 0.359375q-0.078125 0.15625 -0.25 0.21875q-0.1875 0.0625 -0.5 0.109375q-0.3125 0.0625 -0.5625 0.0625zm5.8950195 0q-1.84375 0 -2.921875 -1.078125q-1.0625 -1.078125 -1.0625 -2.9375q0 -1.203125 0.484375 -2.109375q0.484375 -0.921875 1.3125 -1.421875q0.84375 -0.515625 1.953125 -0.515625q1.578125 0 2.46875 1.015625q0.90625 1.015625 0.90625 2.796875q0 0.5 -0.5625 0.5l-5.296875 0q0.0625 1.328125 0.765625 2.03125q0.703125 0.6875 1.953125 0.6875q0.53125 0 1.078125 -0.140625q0.546875 -0.140625 1.046875 -0.484375q0.375 -0.25 0.625 -0.09375q0.25 0.140625 0.25 0.4375q0.015625 0.296875 -0.328125 0.515625q-0.53125 0.390625 -1.265625 0.59375q-0.71875 0.203125 -1.40625 0.203125zm-0.203125 -7.09375q-1.109375 0 -1.75 0.6875q-0.640625 0.6875 -0.75 1.796875l4.71875 0q-0.046875 -1.171875 -0.625 -1.828125q-0.5625 -0.65625 -1.59375 -0.65625zm7.840149 7.09375q-0.71875 0 -1.453125 -0.171875q-0.734375 -0.1875 -1.34375 -0.609375q-0.296875 -0.171875 -0.296875 -0.453125q0.015625 -0.28125 0.21875 -0.4375q0.21875 -0.171875 0.53125 0q0.625 0.375 1.203125 0.53125q0.59375 0.15625 1.171875 0.15625q0.90625 0 1.375 -0.328125q0.46875 -0.34375 0.46875 -0.921875q0 -0.453125 -0.3125 -0.71875q-0.296875 -0.265625 -0.953125 -0.40625l-1.46875 -0.3125q-1.96875 -0.4375 -1.96875 -2.046875q0 -1.0625 0.828125 -1.703125q0.84375 -0.640625 2.203125 -0.640625q0.6875 0 1.328125 0.1875q0.640625 0.1875 1.15625 0.578125q0.265625 0.203125 0.234375 0.46875q-0.03125 0.265625 -0.25 0.421875q-0.21875 0.15625 -0.515625 -0.03125q-0.484375 -0.328125 -0.984375 -0.46875q-0.484375 -0.15625 -0.96875 -0.15625q-0.890625 0 -1.359375 0.359375q-0.46875 0.34375 -0.46875 0.921875q0 0.890625 1.1875 1.140625l1.453125 0.3125q1.03125 0.21875 1.546875 0.71875q0.53125 0.484375 0.53125 1.3125q0 1.0625 -0.84375 1.6875q-0.84375 0.609375 -2.25 0.609375z" fill-rule="nonzero"/><path fill="#efefef" d="m353.77692 19.944881l301.10236 0l0 106.58267l-301.10236 0z" fill-rule="evenodd"/><path fill="#000000" d="m419.50928 54.304882q-0.71875 0 -0.71875 -0.71875l0 -9.84375q0 -0.71875 0.71875 -0.71875l3.796875 0q1.734375 0 2.6875 0.78125q0.953125 0.765625 0.953125 2.15625q0 0.9375 -0.484375 1.59375q-0.46875 0.65625 -1.3125 0.953125q0.96875 0.265625 1.515625 0.953125q0.5625 0.6875 0.5625 1.734375q0 1.515625 -0.984375 2.3125q-0.96875 0.796875 -2.75 0.796875l-3.984375 0zm0.5625 -6.234375l3.046875 0q2.53125 0 2.53125 -1.984375q0 -2.0 -2.53125 -2.0l-3.046875 0l0 3.984375zm0 5.171875l3.296875 0q2.5625 0 2.5625 -2.0625q0 -2.0625 -2.5625 -2.0625l-3.296875 0l0 4.125zm10.019165 1.171875q-0.65625 0 -0.65625 -0.671875l0 -6.671875q0 -0.65625 0.625 -0.65625q0.640625 0 0.640625 0.65625l0 0.84375q0.3125 -0.734375 0.984375 -1.125q0.671875 -0.390625 1.609375 -0.421875q0.5 -0.046875 0.53125 0.515625q0.046875 0.5625 -0.5625 0.625l-0.265625 0.03125q-1.09375 0.09375 -1.671875 0.703125q-0.578125 0.59375 -0.578125 1.625l0 3.875q0 0.671875 -0.65625 0.671875zm8.210144 0.03125q-1.140625 0 -1.984375 -0.484375q-0.828125 -0.5 -1.28125 -1.40625q-0.453125 -0.90625 -0.453125 -2.140625q0 -1.234375 0.453125 -2.125q0.453125 -0.90625 1.28125 -1.40625q0.84375 -0.5 1.984375 -0.5q1.109375 0 1.953125 0.5q0.84375 0.5 1.296875 1.40625q0.453125 0.890625 0.453125 2.125q0 1.234375 -0.453125 2.140625q-0.453125 0.90625 -1.296875 1.40625q-0.84375 0.484375 -1.953125 0.484375zm0 -1.03125q1.078125 0 1.734375 -0.78125q0.65625 -0.78125 0.65625 -2.21875q0 -1.453125 -0.65625 -2.21875q-0.65625 -0.765625 -1.734375 -0.765625q-1.109375 0 -1.765625 0.765625q-0.640625 0.765625 -0.640625 2.21875q0 1.4375 0.640625 2.21875q0.65625 0.78125 1.765625 0.78125zm8.237122 1.0q-0.59375 0 -0.8125 -0.609375l-2.390625 -6.46875q-0.15625 -0.421875 0 -0.671875q0.171875 -0.25 0.546875 -0.25q0.234375 0 0.390625 0.125q0.15625 0.109375 0.25 0.40625l2.046875 5.84375l2.109375 -5.84375q0.1875 -0.53125 0.71875 -0.53125q0.515625 0 0.703125 0.53125l2.078125 5.859375l2.078125 -5.890625q0.125 -0.296875 0.265625 -0.390625q0.15625 -0.109375 0.390625 -0.109375q0.390625 0 0.5 0.28125q0.109375 0.28125 -0.03125 0.640625l-2.375 6.46875q-0.25 0.609375 -0.828125 0.609375q-0.59375 0 -0.796875 -0.609375l-2.015625 -5.53125l-2.015625 5.53125q-0.21875 0.609375 -0.8125 0.609375zm13.2335205 0.03125q-0.71875 0 -1.453125 -0.171875q-0.734375 -0.1875 -1.34375 -0.609375q-0.296875 -0.171875 -0.296875 -0.453125q0.015625 -0.28125 0.21875 -0.4375q0.21875 -0.171875 0.53125 0q0.625 0.375 1.203125 0.53125q0.59375 0.15625 1.171875 0.15625q0.90625 0 1.375 -0.328125q0.46875 -0.34375 0.46875 -0.921875q0 -0.453125 -0.3125 -0.71875q-0.296875 -0.265625 -0.953125 -0.40625l-1.46875 -0.3125q-1.96875 -0.4375 -1.96875 -2.046875q0 -1.0625 0.828125 -1.703125q0.84375 -0.640625 2.203125 -0.640625q0.6875 0 1.328125 0.1875q0.640625 0.1875 1.15625 0.578125q0.265625 0.203125 0.234375 0.46875q-0.03125 0.265625 -0.25 0.421875q-0.21875 0.15625 -0.515625 -0.03125q-0.484375 -0.328125 -0.984375 -0.46875q-0.484375 -0.15625 -0.96875 -0.15625q-0.890625 0 -1.359375 0.359375q-0.46875 0.34375 -0.46875 0.921875q0 0.890625 1.1875 1.140625l1.453125 0.3125q1.03125 0.21875 1.546875 0.71875q0.53125 0.484375 0.53125 1.3125q0 1.0625 -0.84375 1.6875q-0.84375 0.609375 -2.25 0.609375zm8.571014 0q-1.84375 0 -2.921875 -1.078125q-1.0625 -1.078125 -1.0625 -2.9375q0 -1.203125 0.484375 -2.109375q0.484375 -0.921875 1.3125 -1.421875q0.84375 -0.515625 1.953125 -0.515625q1.578125 0 2.46875 1.015625q0.90625 1.015625 0.90625 2.796875q0 0.5 -0.5625 0.5l-5.296875 0q0.0625 1.328125 0.765625 2.03125q0.703125 0.6875 1.953125 0.6875q0.53125 0 1.078125 -0.140625q0.546875 -0.140625 1.046875 -0.484375q0.375 -0.25 0.625 -0.09375q0.25 0.140625 0.25 0.4375q0.015625 0.296875 -0.328125 0.515625q-0.53125 0.390625 -1.265625 0.59375q-0.71875 0.203125 -1.40625 0.203125zm-0.203125 -7.09375q-1.109375 0 -1.75 0.6875q-0.640625 0.6875 -0.75 1.796875l4.71875 0q-0.046875 -1.171875 -0.625 -1.828125q-0.5625 -0.65625 -1.59375 -0.65625zm5.871399 7.0625q-0.65625 0 -0.65625 -0.671875l0 -6.671875q0 -0.65625 0.625 -0.65625q0.640625 0 0.640625 0.65625l0 0.84375q0.3125 -0.734375 0.984375 -1.125q0.671875 -0.390625 1.609375 -0.421875q0.5 -0.046875 0.53125 0.515625q0.046875 0.5625 -0.5625 0.625l-0.265625 0.03125q-1.09375 0.09375 -1.671875 0.703125q-0.578125 0.59375 -0.578125 1.625l0 3.875q0 0.671875 -0.65625 0.671875zm8.856049 0.4375q-0.09375 0.265625 -0.28125 0.34375q-0.1875 0.09375 -0.40625 0.03125q-0.203125 -0.0625 -0.3125 -0.234375q-0.109375 -0.171875 -0.03125 -0.453125l3.796875 -11.796875q0.109375 -0.265625 0.296875 -0.34375q0.1875 -0.09375 0.390625 -0.03125q0.21875 0.046875 0.328125 0.234375q0.109375 0.1875 0.015625 0.4375l-3.796875 11.8125zm9.796631 -0.4375q-0.625 0 -0.625 -0.65625l0 -10.171875q0 -0.671875 0.578125 -0.671875q0.234375 0 0.359375 0.09375q0.140625 0.078125 0.296875 0.3125l6.59375 8.78125l0 -8.546875q0 -0.640625 0.625 -0.640625q0.59375 0 0.59375 0.640625l0 10.21875q0 0.640625 -0.53125 0.640625q-0.25 0 -0.390625 -0.09375q-0.140625 -0.09375 -0.296875 -0.296875l-6.59375 -8.828125l0 8.5625q0 0.65625 -0.609375 0.65625zm13.480652 0.03125q-0.796875 0 -1.4375 -0.3125q-0.625 -0.3125 -1.0 -0.84375q-0.359375 -0.546875 -0.359375 -1.21875q0 -0.859375 0.4375 -1.34375q0.453125 -0.5 1.46875 -0.71875q1.015625 -0.21875 2.765625 -0.21875l0.515625 0l0 -0.5q0 -0.984375 -0.40625 -1.421875q-0.40625 -0.4375 -1.296875 -0.4375q-0.5625 0 -1.140625 0.140625q-0.5625 0.140625 -1.171875 0.46875q-0.265625 0.140625 -0.453125 0.0625q-0.1875 -0.09375 -0.265625 -0.296875q-0.0625 -0.203125 0 -0.421875q0.078125 -0.21875 0.3125 -0.328125q0.6875 -0.34375 1.390625 -0.5q0.703125 -0.171875 1.328125 -0.171875q1.5 0 2.21875 0.734375q0.734375 0.734375 0.734375 2.296875l0 4.328125q0 0.671875 -0.59375 0.671875q-0.625 0 -0.625 -0.671875l0 -0.78125q-0.296875 0.6875 -0.9375 1.09375q-0.625 0.390625 -1.484375 0.390625zm0.21875 -0.96875q0.953125 0 1.5625 -0.65625q0.609375 -0.671875 0.609375 -1.703125l0 -0.46875l-0.5 0q-1.296875 0 -2.046875 0.125q-0.734375 0.109375 -1.03125 0.40625q-0.296875 0.296875 -0.296875 0.8125q0 0.65625 0.453125 1.078125q0.46875 0.40625 1.25 0.40625zm8.94873 0.96875q-1.390625 0 -2.078125 -0.71875q-0.6875 -0.734375 -0.6875 -2.109375l0 -4.078125l-1.0624695 0q-0.5625 0 -0.5625 -0.515625q0 -0.5 0.5625 -0.5l1.0624695 0l0 -1.828125q0 -0.65625 0.65625 -0.65625q0.640625 0 0.640625 0.65625l0 1.828125l2.015625 0q0.5625 0 0.5625 0.5q0 0.515625 -0.5625 0.515625l-2.015625 0l0 3.953125q0 0.90625 0.375 1.390625q0.390625 0.46875 1.265625 0.46875q0.296875 0 0.5 -0.0625q0.21875 -0.078125 0.375 -0.078125q0.140625 -0.015625 0.234375 0.109375q0.109375 0.109375 0.109375 0.375q0 0.1875 -0.078125 0.359375q-0.078125 0.15625 -0.25 0.21875q-0.1875 0.0625 -0.5 0.109375q-0.3125 0.0625 -0.5625 0.0625zm3.21167 -9.78125q-0.84375 0 -0.84375 -0.8125q0 -0.78125 0.84375 -0.78125q0.84375 0 0.84375 0.78125q0 0.8125 -0.84375 0.8125zm0 9.71875q-0.640625 0 -0.640625 -0.703125l0 -6.546875q0 -0.6875 0.640625 -0.6875q0.65625 0 0.65625 0.6875l0 6.546875q0 0.703125 -0.65625 0.703125zm5.961975 0.03125q-0.5625 0 -0.828125 -0.625l-2.765625 -6.453125q-0.15625 -0.375 -0.015625 -0.640625q0.140625 -0.28125 0.578125 -0.28125q0.4375 0 0.65625 0.515625l2.40625 5.90625l2.453125 -5.90625q0.109375 -0.28125 0.25 -0.390625q0.140625 -0.125 0.421875 -0.125q0.359375 0 0.484375 0.28125q0.140625 0.265625 0 0.625l-2.8125 6.46875q-0.25 0.625 -0.828125 0.625zm8.737427 0.03125q-1.84375 0 -2.921875 -1.078125q-1.0625 -1.078125 -1.0625 -2.9375q0 -1.203125 0.484375 -2.109375q0.484375 -0.921875 1.3125 -1.421875q0.84375 -0.515625 1.953125 -0.515625q1.578125 0 2.46875 1.015625q0.90625 1.015625 0.90625 2.796875q0 0.5 -0.5625 0.5l-5.296875 0q0.0625 1.328125 0.765625 2.03125q0.703125 0.6875 1.953125 0.6875q0.53125 0 1.078125 -0.140625q0.546875 -0.140625 1.046875 -0.484375q0.375 -0.25 0.625 -0.09375q0.25 0.140625 0.25 0.4375q0.015625 0.296875 -0.328125 0.515625q-0.53125 0.390625 -1.265625 0.59375q-0.71875 0.203125 -1.40625 0.203125zm-0.203125 -7.09375q-1.109375 0 -1.75 0.6875q-0.640625 0.6875 -0.75 1.796875l4.71875 0q-0.046875 -1.171875 -0.625 -1.828125q-0.5625 -0.65625 -1.59375 -0.65625zm14.390015 7.09375q-1.65625 0 -2.84375 -0.703125q-1.1875 -0.703125 -1.828125 -2.0q-0.625 -1.296875 -0.625 -3.078125q0 -1.78125 0.625 -3.078125q0.640625 -1.296875 1.828125 -2.0q1.1875 -0.703125 2.84375 -0.703125q1.0 0 1.890625 0.296875q0.90625 0.28125 1.5625 0.8125q0.265625 0.1875 0.296875 0.453125q0.046875 0.25 -0.078125 0.453125q-0.125 0.1875 -0.359375 0.25q-0.234375 0.046875 -0.515625 -0.15625q-1.140625 -0.90625 -2.765625 -0.90625q-1.890625 0 -2.90625 1.203125q-1.0 1.1875 -1.0 3.375q0 2.1875 1.0 3.390625q1.015625 1.1875 2.90625 1.1875q1.625 0 2.796875 -0.921875q0.28125 -0.1875 0.515625 -0.140625q0.234375 0.046875 0.34375 0.234375q0.125 0.1875 0.09375 0.4375q-0.03125 0.234375 -0.265625 0.421875q-0.6875 0.578125 -1.59375 0.875q-0.890625 0.296875 -1.921875 0.296875zm8.080505 0q-1.140625 0 -1.75 -0.6875q-0.609375 -0.703125 -0.609375 -2.03125l0 -8.15625q0 -0.65625 0.640625 -0.65625q0.65625 0 0.65625 0.65625l0 8.0625q0 1.71875 1.359375 1.71875q0.140625 0 0.25 -0.015625q0.109375 -0.015625 0.234375 -0.015625q0.171875 -0.03125 0.234375 0.078125q0.078125 0.09375 0.078125 0.375q0 0.546875 -0.546875 0.625q-0.125 0.03125 -0.265625 0.03125q-0.140625 0.015625 -0.28125 0.015625zm3.017273 -9.78125q-0.84375 0 -0.84375 -0.8125q0 -0.78125 0.84375 -0.78125q0.84375 0 0.84375 0.78125q0 0.8125 -0.84375 0.8125zm0 9.71875q-0.640625 0 -0.640625 -0.703125l0 -6.546875q0 -0.6875 0.640625 -0.6875q0.65625 0 0.65625 0.6875l0 6.546875q0 0.703125 -0.65625 0.703125zm6.57135 0.0625q-1.84375 0 -2.921875 -1.078125q-1.0625 -1.078125 -1.0625 -2.9375q0 -1.203125 0.484375 -2.109375q0.484375 -0.921875 1.3125 -1.421875q0.84375 -0.515625 1.953125 -0.515625q1.578125 0 2.46875 1.015625q0.90625 1.015625 0.90625 2.796875q0 0.5 -0.5625 0.5l-5.296875 0q0.0625 1.328125 0.765625 2.03125q0.703125 0.6875 1.953125 0.6875q0.53125 0 1.078125 -0.140625q0.546875 -0.140625 1.046875 -0.484375q0.375 -0.25 0.625 -0.09375q0.25 0.140625 0.25 0.4375q0.015625 0.296875 -0.328125 0.515625q-0.53125 0.390625 -1.265625 0.59375q-0.71875 0.203125 -1.40625 0.203125zm-0.203125 -7.09375q-1.109375 0 -1.75 0.6875q-0.640625 0.6875 -0.75 1.796875l4.71875 0q-0.046875 -1.171875 -0.625 -1.828125q-0.5625 -0.65625 -1.59375 -0.65625zm5.855774 7.0625q-0.640625 0 -0.640625 -0.671875l0 -6.671875q0 -0.65625 0.625 -0.65625q0.640625 0 0.640625 0.65625l0 0.78125q0.375 -0.734375 1.078125 -1.09375q0.703125 -0.375 1.59375 -0.375q2.765625 0 2.765625 3.078125l0 4.28125q0 0.671875 -0.640625 0.671875q-0.65625 0 -0.65625 -0.671875l0 -4.203125q0 -1.09375 -0.421875 -1.59375q-0.421875 -0.5 -1.359375 -0.5q-1.0625 0 -1.703125 0.671875q-0.625 0.65625 -0.625 1.75l0 3.875q0 0.671875 -0.65625 0.671875zm11.572388 0.03125q-1.390625 0 -2.078125 -0.71875q-0.6875 -0.734375 -0.6875 -2.109375l0 -4.078125l-1.0625 0q-0.5625 0 -0.5625 -0.515625q0 -0.5 0.5625 -0.5l1.0625 0l0 -1.828125q0 -0.65625 0.65625 -0.65625q0.640625 0 0.640625 0.65625l0 1.828125l2.015625 0q0.5625 0 0.5625 0.5q0 0.515625 -0.5625 0.515625l-2.015625 0l0 3.953125q0 0.90625 0.375 1.390625q0.390625 0.46875 1.265625 0.46875q0.296875 0 0.5 -0.0625q0.21875 -0.078125 0.375 -0.078125q0.140625 -0.015625 0.234375 0.109375q0.109375 0.109375 0.109375 0.375q0 0.1875 -0.078125 0.359375q-0.078125 0.15625 -0.25 0.21875q-0.1875 0.0625 -0.5 0.109375q-0.3125 0.0625 -0.5625 0.0625zm5.1000366 0q-0.71875 0 -1.453125 -0.171875q-0.734375 -0.1875 -1.34375 -0.609375q-0.296875 -0.171875 -0.296875 -0.453125q0.015625 -0.28125 0.21875 -0.4375q0.21875 -0.171875 0.53125 0q0.625 0.375 1.203125 0.53125q0.59375 0.15625 1.171875 0.15625q0.90625 0 1.375 -0.328125q0.46875 -0.34375 0.46875 -0.921875q0 -0.453125 -0.3125 -0.71875q-0.296875 -0.265625 -0.953125 -0.40625l-1.46875 -0.3125q-1.96875 -0.4375 -1.96875 -2.046875q0 -1.0625 0.828125 -1.703125q0.84375 -0.640625 2.203125 -0.640625q0.6875 0 1.328125 0.1875q0.640625 0.1875 1.15625 0.578125q0.265625 0.203125 0.234375 0.46875q-0.03125 0.265625 -0.25 0.421875q-0.21875 0.15625 -0.515625 -0.03125q-0.484375 -0.328125 -0.984375 -0.46875q-0.484375 -0.15625 -0.96875 -0.15625q-0.890625 0 -1.359375 0.359375q-0.46875 0.34375 -0.46875 0.921875q0 0.890625 1.1875 1.140625l1.453125 0.3125q1.03125 0.21875 1.546875 0.71875q0.53125 0.484375 0.53125 1.3125q0 1.0625 -0.84375 1.6875q-0.84375 0.609375 -2.25 0.609375z" fill-rule="nonzero"/><path fill="#ffffff" d="m292.34253 544.15924l0 0c0 -9.8116455 20.2594 -17.765564 45.25064 -17.765564c24.991241 0 45.25067 7.9539185 45.25067 17.765564l0 71.06213c0 9.811584 -20.25943 17.765503 -45.25067 17.765503c-24.991241 0 -45.25064 -7.9539185 -45.25064 -17.765503z" fill-rule="evenodd"/><path fill="#000000" fill-opacity="0.0" d="m382.84384 544.15924l0 0c0 9.8116455 -20.25943 17.765503 -45.25067 17.765503c-24.991241 0 -45.25064 -7.9538574 -45.25064 -17.765503" fill-rule="evenodd"/><path fill="#000000" fill-opacity="0.0" d="m292.34253 544.15924l0 0c0 -9.8116455 20.2594 -17.765564 45.25064 -17.765564c24.991241 0 45.25067 7.9539185 45.25067 17.765564l0 71.06213c0 9.811584 -20.25943 17.765503 -45.25067 17.765503c-24.991241 0 -45.25064 -7.9539185 -45.25064 -17.765503z" fill-rule="evenodd"/><path stroke="#000000" stroke-width="1.0" stroke-linejoin="round" stroke-linecap="butt" d="m382.84384 544.15924l0 0c0 9.8116455 -20.25943 17.765503 -45.25067 17.765503c-24.991241 0 -45.25064 -7.9538574 -45.25064 -17.765503" fill-rule="evenodd"/><path stroke="#000000" stroke-width="1.0" stroke-linejoin="round" stroke-linecap="butt" d="m292.34253 544.15924l0 0c0 -9.8116455 20.2594 -17.765564 45.25064 -17.765564c24.991241 0 45.25067 7.9539185 45.25067 17.765564l0 71.06213c0 9.811584 -20.25943 17.765503 -45.25067 17.765503c-24.991241 0 -45.25064 -7.9539185 -45.25064 -17.765503z" fill-rule="evenodd"/><path fill="#000000" d="m316.79413 595.61804q-0.765625 0 -0.765625 -0.796875l0 -11.703125q0 -0.78125 0.78125 -0.78125l4.421875 0q2.125 0 3.25 1.0q1.140625 0.984375 1.140625 2.8125q0 1.453125 -0.796875 2.390625q-0.796875 0.921875 -2.25 1.203125q0.859375 0.296875 1.46875 1.453125l1.796875 3.34375q0.203125 0.390625 0.0625 0.734375q-0.125 0.34375 -0.59375 0.34375q-0.3125 0 -0.515625 -0.140625q-0.203125 -0.140625 -0.359375 -0.4375l-2.03125 -3.765625q-0.421875 -0.796875 -0.984375 -1.0625q-0.5625 -0.28125 -1.46875 -0.28125l-2.390625 0l0 4.890625q0 0.796875 -0.765625 0.796875zm0.765625 -6.890625l3.453125 0q3.09375 0 3.09375 -2.578125q0 -2.546875 -3.09375 -2.546875l-3.453125 0l0 5.125zm14.619446 6.9375q-2.140625 0 -3.390625 -1.25q-1.25 -1.265625 -1.25 -3.4375q0 -1.390625 0.5625 -2.46875q0.5625 -1.078125 1.53125 -1.65625q0.984375 -0.59375 2.265625 -0.59375q1.859375 0 2.890625 1.1875q1.046875 1.1875 1.046875 3.25q0 0.578125 -0.65625 0.578125l-6.171875 0q0.078125 1.546875 0.890625 2.359375q0.828125 0.8125 2.28125 0.8125q0.625 0 1.25 -0.15625q0.640625 -0.15625 1.234375 -0.5625q0.421875 -0.28125 0.71875 -0.109375q0.296875 0.15625 0.296875 0.5q0.015625 0.34375 -0.375 0.609375q-0.625 0.453125 -1.46875 0.703125q-0.84375 0.234375 -1.65625 0.234375zm-0.234375 -8.28125q-1.296875 0 -2.046875 0.796875q-0.734375 0.796875 -0.875 2.109375l5.515625 0q-0.0625 -1.375 -0.734375 -2.140625q-0.65625 -0.765625 -1.859375 -0.765625zm9.534515 8.28125q-1.21875 0 -2.125 -0.578125q-0.90625 -0.578125 -1.40625 -1.625q-0.484375 -1.0625 -0.484375 -2.5q0 -1.453125 0.484375 -2.5q0.5 -1.0625 1.40625 -1.625q0.90625 -0.578125 2.125 -0.578125q1.0625 0 1.875 0.46875q0.8125 0.46875 1.203125 1.28125l0 -5.03125q0 -0.765625 0.765625 -0.765625q0.734375 0 0.734375 0.765625l0 11.859375q0 0.78125 -0.734375 0.78125q-0.75 0 -0.75 -0.78125l0 -0.96875q-0.40625 0.84375 -1.21875 1.328125q-0.8125 0.46875 -1.875 0.46875zm0.3125 -1.21875q1.265625 0 2.03125 -0.90625q0.765625 -0.90625 0.765625 -2.578125q0 -1.703125 -0.765625 -2.59375q-0.765625 -0.890625 -2.03125 -0.890625q-1.28125 0 -2.046875 0.890625q-0.75 0.890625 -0.75 2.59375q0 1.671875 0.75 2.578125q0.765625 0.90625 2.046875 0.90625zm7.860962 -10.203125q-1.0 0 -1.0 -0.9375q0 -0.90625 1.0 -0.90625q0.984375 0 0.984375 0.90625q0 0.9375 -0.984375 0.9375zm0 11.34375q-0.75 0 -0.75 -0.828125l0 -7.625q0 -0.796875 0.75 -0.796875q0.75 0 0.75 0.796875l0 7.625q0 0.828125 -0.75 0.828125zm6.640747 0.078125q-0.84375 0 -1.703125 -0.21875q-0.84375 -0.21875 -1.5625 -0.703125q-0.34375 -0.203125 -0.34375 -0.53125q0.015625 -0.328125 0.25 -0.515625q0.25 -0.1875 0.625 0q0.734375 0.453125 1.40625 0.640625q0.6875 0.171875 1.359375 0.171875q1.0625 0 1.59375 -0.390625q0.546875 -0.390625 0.546875 -1.0625q0 -0.53125 -0.359375 -0.828125q-0.34375 -0.3125 -1.109375 -0.484375l-1.703125 -0.375q-2.3125 -0.5 -2.3125 -2.390625q0 -1.234375 0.984375 -1.96875q0.984375 -0.75 2.5625 -0.75q0.796875 0 1.546875 0.21875q0.75 0.203125 1.34375 0.671875q0.3125 0.234375 0.28125 0.546875q-0.03125 0.3125 -0.296875 0.5q-0.25 0.171875 -0.59375 -0.046875q-0.5625 -0.375 -1.140625 -0.546875q-0.578125 -0.1875 -1.140625 -0.1875q-1.046875 0 -1.59375 0.421875q-0.53125 0.40625 -0.53125 1.078125q0 1.03125 1.375 1.328125l1.703125 0.359375q1.1875 0.265625 1.796875 0.84375q0.625 0.5625 0.625 1.53125q0 1.25 -0.984375 1.96875q-0.984375 0.71875 -2.625 0.71875z" fill-rule="nonzero"/><path fill="#ffffff" d="m529.5197 234.33595l265.63776 0l0 37.16536l-265.63776 0z" fill-rule="evenodd"/><path stroke="#b7b7b7" stroke-width="1.0" stroke-linejoin="round" stroke-linecap="butt" d="m529.5197 234.33595l265.63776 0l0 37.16536l-265.63776 0z" fill-rule="evenodd"/><path fill="#000000" d="m638.3294 258.888q-0.65625 0 -0.65625 -0.6875l0 -10.124985q0 -0.6875 0.65625 -0.6875q0.65625 0 0.65625 0.6875l0 10.124985q0 0.6875 -0.65625 0.6875zm3.9244995 0q-0.640625 0 -0.640625 -0.671875l0 -6.6718597q0 -0.65625 0.625 -0.65625q0.640625 0 0.640625 0.65625l0 0.78125q0.375 -0.734375 1.078125 -1.09375q0.703125 -0.375 1.59375 -0.375q2.765625 0 2.765625 3.078125l0 4.2812347q0 0.671875 -0.640625 0.671875q-0.65625 0 -0.65625 -0.671875l0 -4.2031097q0 -1.09375 -0.421875 -1.59375q-0.421875 -0.5 -1.359375 -0.5q-1.0625 0 -1.703125 0.671875q-0.625 0.65625 -0.625 1.75l0 3.8749847q0 0.671875 -0.65625 0.671875zm11.884888 2.921875q-0.84375 0 -1.65625 -0.203125q-0.8125 -0.203125 -1.46875 -0.640625q-0.234375 -0.140625 -0.28125 -0.34375q-0.03125 -0.203125 0.0625 -0.390625q0.09375 -0.171875 0.28125 -0.25q0.1875 -0.078125 0.390625 0.03125q0.703125 0.421875 1.34375 0.578125q0.640625 0.171875 1.265625 0.171875q2.296875 0 2.296875 -2.375l0 -1.375q-0.328125 0.734375 -1.046875 1.171875q-0.703125 0.421875 -1.625 0.421875q-1.0625 0 -1.859375 -0.5q-0.78125 -0.5 -1.203125 -1.359375q-0.421875 -0.87498474 -0.421875 -2.0312347q0 -1.15625 0.421875 -2.015625q0.421875 -0.875 1.203125 -1.359375q0.796875 -0.484375 1.859375 -0.484375q0.921875 0 1.625 0.40625q0.703125 0.390625 1.03125 1.109375l0 -0.828125q0 -0.65625 0.640625 -0.65625q0.640625 0 0.640625 0.65625l0 6.6718597q0 1.796875 -0.890625 2.6875q-0.875 0.90625 -2.609375 0.90625zm-0.1875 -4.265625q1.109375 0 1.765625 -0.765625q0.65625 -0.765625 0.65625 -2.0624847q0 -1.296875 -0.65625 -2.046875q-0.65625 -0.765625 -1.765625 -0.765625q-1.109375 0 -1.765625 0.765625q-0.65625 0.75 -0.65625 2.046875q0 1.2968597 0.65625 2.0624847q0.65625 0.765625 1.765625 0.765625zm6.7822876 1.34375q-0.65625 0 -0.65625 -0.671875l0 -6.6718597q0 -0.65625 0.625 -0.65625q0.640625 0 0.640625 0.65625l0 0.84375q0.3125 -0.734375 0.984375 -1.125q0.671875 -0.390625 1.609375 -0.421875q0.5 -0.046875 0.53125 0.515625q0.046875 0.5625 -0.5625 0.625l-0.265625 0.03125q-1.09375 0.09375 -1.671875 0.703125q-0.578125 0.59375 -0.578125 1.625l0 3.8749847q0 0.671875 -0.65625 0.671875zm8.475769 0.03125q-1.84375 0 -2.921875 -1.078125q-1.0625 -1.078125 -1.0625 -2.9374847q0 -1.203125 0.484375 -2.109375q0.484375 -0.921875 1.3125 -1.421875q0.84375 -0.515625 1.953125 -0.515625q1.578125 0 2.46875 1.015625q0.90625 1.015625 0.90625 2.796875q0 0.5 -0.5625 0.5l-5.296875 0q0.0625 1.3281097 0.765625 2.0312347q0.703125 0.6875 1.953125 0.6875q0.53125 0 1.078125 -0.140625q0.546875 -0.140625 1.046875 -0.484375q0.375 -0.25 0.625 -0.09375q0.25 0.140625 0.25 0.4375q0.015625 0.296875 -0.328125 0.515625q-0.53125 0.390625 -1.265625 0.59375q-0.71875 0.203125 -1.40625 0.203125zm-0.203125 -7.0937347q-1.109375 0 -1.75 0.6875q-0.640625 0.6875 -0.75 1.796875l4.71875 0q-0.046875 -1.171875 -0.625 -1.828125q-0.5625 -0.65625 -1.59375 -0.65625zm7.840149 7.0937347q-0.71875 0 -1.453125 -0.171875q-0.734375 -0.1875 -1.34375 -0.609375q-0.296875 -0.171875 -0.296875 -0.453125q0.015625 -0.28125 0.21875 -0.4375q0.21875 -0.171875 0.53125 0q0.625 0.375 1.203125 0.53125q0.59375 0.15625 1.171875 0.15625q0.90625 0 1.375 -0.328125q0.46875 -0.34375 0.46875 -0.921875q0 -0.453125 -0.3125 -0.71873474q-0.296875 -0.265625 -0.953125 -0.40625l-1.46875 -0.3125q-1.96875 -0.4375 -1.96875 -2.046875q0 -1.0625 0.828125 -1.703125q0.84375 -0.640625 2.203125 -0.640625q0.6875 0 1.328125 0.1875q0.640625 0.1875 1.15625 0.578125q0.265625 0.203125 0.234375 0.46875q-0.03125 0.265625 -0.25 0.421875q-0.21875 0.15625 -0.515625 -0.03125q-0.484375 -0.328125 -0.984375 -0.46875q-0.484375 -0.15625 -0.96875 -0.15625q-0.890625 0 -1.359375 0.359375q-0.46875 0.34375 -0.46875 0.921875q0 0.890625 1.1875 1.140625l1.453125 0.3125q1.03125 0.21875 1.546875 0.71875q0.53125 0.484375 0.53125 1.3124847q0 1.0625 -0.84375 1.6875q-0.84375 0.609375 -2.25 0.609375zm7.696045 0q-0.71875 0 -1.453125 -0.171875q-0.734375 -0.1875 -1.34375 -0.609375q-0.296875 -0.171875 -0.296875 -0.453125q0.015625 -0.28125 0.21875 -0.4375q0.21875 -0.171875 0.53125 0q0.625 0.375 1.203125 0.53125q0.59375 0.15625 1.171875 0.15625q0.90625 0 1.375 -0.328125q0.46875 -0.34375 0.46875 -0.921875q0 -0.453125 -0.3125 -0.71873474q-0.296875 -0.265625 -0.953125 -0.40625l-1.46875 -0.3125q-1.96875 -0.4375 -1.96875 -2.046875q0 -1.0625 0.828125 -1.703125q0.84375 -0.640625 2.203125 -0.640625q0.6875 0 1.328125 0.1875q0.640625 0.1875 1.15625 0.578125q0.265625 0.203125 0.234375 0.46875q-0.03125 0.265625 -0.25 0.421875q-0.21875 0.15625 -0.515625 -0.03125q-0.484375 -0.328125 -0.984375 -0.46875q-0.484375 -0.15625 -0.96875 -0.15625q-0.890625 0 -1.359375 0.359375q-0.46875 0.34375 -0.46875 0.921875q0 0.890625 1.1875 1.140625l1.453125 0.3125q1.03125 0.21875 1.546875 0.71875q0.53125 0.484375 0.53125 1.3124847q0 1.0625 -0.84375 1.6875q-0.84375 0.609375 -2.25 0.609375z" fill-rule="nonzero"/><path fill="#ffffff" d="m359.00247 88.21244l0 0c0 -3.5689087 2.8931885 -6.4620743 6.4620667 -6.4620743l277.9735 0c1.7138672 0 3.357483 0.6808243 4.569397 1.8926926c1.211853 1.2118759 1.8927002 2.8555298 1.8927002 4.5693817l0 25.847504c0 3.5689087 -2.8931885 6.4620743 -6.462097 6.4620743l-277.9735 0c-3.5688782 0 -6.4620667 -2.8931656 -6.4620667 -6.4620743z" fill-rule="evenodd"/><path stroke="#b7b7b7" stroke-width="1.0" stroke-linejoin="round" stroke-linecap="butt" d="m359.00247 88.21244l0 0c0 -3.5689087 2.8931885 -6.4620743 6.4620667 -6.4620743l277.9735 0c1.7138672 0 3.357483 0.6808243 4.569397 1.8926926c1.211853 1.2118759 1.8927002 2.8555298 1.8927002 4.5693817l0 25.847504c0 3.5689087 -2.8931885 6.4620743 -6.462097 6.4620743l-277.9735 0c-3.5688782 0 -6.4620667 -2.8931656 -6.4620667 -6.4620743z" fill-rule="evenodd"/><path fill="#000000" d="m464.32172 106.99619q-0.671875 0 -0.671875 -0.6875l0 -9.984375q0 -0.6875 0.65625 -0.6875q0.65625 0 0.65625 0.6875l0 9.515625l5.25 0q0.609375 0 0.609375 0.578125q0 0.578125 -0.609375 0.578125l-5.890625 0zm8.484894 -9.640625q-0.84375 0 -0.84375 -0.8125q0 -0.78125 0.84375 -0.78125q0.84375 0 0.84375 0.78125q0 0.8125 -0.84375 0.8125zm0 9.71875q-0.640625 0 -0.640625 -0.703125l0 -6.546875q0 -0.6875 0.640625 -0.6875q0.65625 0 0.65625 0.6875l0 6.546875q0 0.703125 -0.65625 0.703125zm5.9620056 0.03125q-0.5625 0 -0.828125 -0.625l-2.765625 -6.453125q-0.15625 -0.375 -0.015625 -0.640625q0.140625 -0.28125 0.578125 -0.28125q0.4375 0 0.65625 0.515625l2.40625 5.90625l2.453125 -5.90625q0.109375 -0.28125 0.25 -0.390625q0.140625 -0.125 0.421875 -0.125q0.359375 0 0.484375 0.28125q0.140625 0.265625 0 0.625l-2.8125 6.46875q-0.25 0.625 -0.828125 0.625zm8.737396 0.03125q-1.84375 0 -2.921875 -1.078125q-1.0625 -1.078125 -1.0625 -2.9375q0 -1.203125 0.484375 -2.109375q0.484375 -0.921875 1.3125 -1.421875q0.84375 -0.515625 1.953125 -0.515625q1.578125 0 2.4687195 1.015625q0.90625 1.015625 0.90625 2.796875q0 0.5 -0.5625 0.5l-5.2968445 0q0.0625 1.328125 0.765625 2.03125q0.703125 0.6875 1.953125 0.6875q0.53125 0 1.078125 -0.140625q0.5468445 -0.140625 1.0468445 -0.484375q0.375 -0.25 0.625 -0.09375q0.25 0.140625 0.25 0.4375q0.015625 0.296875 -0.328125 0.515625q-0.53125 0.390625 -1.265625 0.59375q-0.7187195 0.203125 -1.4062195 0.203125zm-0.203125 -7.09375q-1.109375 0 -1.75 0.6875q-0.640625 0.6875 -0.75 1.796875l4.7187195 0q-0.046875 -1.171875 -0.625 -1.828125q-0.5624695 -0.65625 -1.5937195 -0.65625zm6.0432434 7.0625q-0.65625 0 -0.65625 -0.6875l0 -10.140625q0 -0.671875 0.65625 -0.671875q0.65625 0 0.65625 0.671875l0 4.5625l0.03125 0l5.21875 -4.875q0.390625 -0.359375 0.796875 -0.359375q0.4375 0 0.515625 0.3125q0.09375 0.3125 -0.1875 0.578125l-5.078125 4.6875l5.328125 4.9375q0.359375 0.328125 0.21875 0.65625q-0.125 0.328125 -0.5625 0.328125q-0.234375 0 -0.40625 -0.109375q-0.15625 -0.09375 -0.375 -0.296875l-5.46875 -5.015625l-0.03125 0l0 4.734375q0 0.6875 -0.65625 0.6875zm10.004517 -9.75q-0.84375 0 -0.84375 -0.8125q0 -0.78125 0.84375 -0.78125q0.84375 0 0.84375 0.78125q0 0.8125 -0.84375 0.8125zm0 9.71875q-0.640625 0 -0.640625 -0.703125l0 -6.546875q0 -0.6875 0.640625 -0.6875q0.65625 0 0.65625 0.6875l0 6.546875q0 0.703125 -0.65625 0.703125zm6.1963806 0.0625q-1.390625 0 -2.078125 -0.71875q-0.6875 -0.734375 -0.6875 -2.109375l0 -4.078125l-1.0625 0q-0.5625 0 -0.5625 -0.515625q0 -0.5 0.5625 -0.5l1.0625 0l0 -1.828125q0 -0.65625 0.65625 -0.65625q0.640625 0 0.640625 0.65625l0 1.828125l2.015625 0q0.5625 0 0.5625 0.5q0 0.515625 -0.5625 0.515625l-2.015625 0l0 3.953125q0 0.90625 0.375 1.390625q0.390625 0.46875 1.265625 0.46875q0.296875 0 0.5 -0.0625q0.21875 -0.078125 0.375 -0.078125q0.140625 -0.015625 0.234375 0.109375q0.109375 0.109375 0.109375 0.375q0 0.1875 -0.078125 0.359375q-0.078125 0.15625 -0.25 0.21875q-0.1875 0.0625 -0.5 0.109375q-0.3125 0.0625 -0.5625 0.0625zm10.431183 0q-1.15625 0 -2.171875 -0.28125q-1.015625 -0.28125 -1.75 -0.8125q-0.265625 -0.1875 -0.3125 -0.421875q-0.046875 -0.234375 0.046875 -0.4375q0.109375 -0.21875 0.3125 -0.28125q0.21875 -0.078125 0.484375 0.09375q0.734375 0.53125 1.546875 0.75q0.8125 0.21875 1.84375 0.21875q1.4375 0 2.125 -0.53125q0.703125 -0.53125 0.703125 -1.40625q0 -0.71875 -0.515625 -1.125q-0.5 -0.421875 -1.671875 -0.65625l-1.671875 -0.34375q-1.5 -0.3125 -2.25 -1.03125q-0.734375 -0.734375 -0.734375 -1.953125q0 -1.015625 0.515625 -1.765625q0.515625 -0.75 1.4375 -1.15625q0.9375 -0.421875 2.15625 -0.421875q1.0 0 1.875 0.28125q0.875 0.28125 1.578125 0.84375q0.21875 0.171875 0.25 0.40625q0.046875 0.234375 -0.0625 0.421875q-0.109375 0.1875 -0.328125 0.25q-0.203125 0.046875 -0.484375 -0.125q-0.640625 -0.5 -1.34375 -0.703125q-0.6875 -0.203125 -1.5 -0.203125q-1.265625 0 -2.015625 0.578125q-0.75 0.578125 -0.75 1.546875q0 0.765625 0.46875 1.21875q0.46875 0.4375 1.546875 0.65625l1.65625 0.34375q1.609375 0.34375 2.390625 1.03125q0.78125 0.671875 0.78125 1.828125q0 0.953125 -0.515625 1.671875q-0.5 0.71875 -1.4375 1.125q-0.9375 0.390625 -2.203125 0.390625zm6.902527 -0.140625q-0.71875 0 -0.71875 -0.71875l0 -9.84375q0 -0.71875 0.71875 -0.71875l3.09375 0q2.734375 0 4.21875 1.453125q1.484375 1.4375 1.484375 4.1875q0 2.734375 -1.484375 4.1875q-1.484375 1.453125 -4.21875 1.453125l-3.09375 0zm0.59375 -1.125l2.40625 0q4.40625 0 4.40625 -4.515625q0 -4.515625 -4.40625 -4.515625l-2.40625 0l0 9.03125zm11.215759 1.234375q-0.65625 0 -0.65625 -0.6875l0 -10.140625q0 -0.671875 0.65625 -0.671875q0.65625 0 0.65625 0.671875l0 4.5625l0.03125 0l5.21875 -4.875q0.390625 -0.359375 0.796875 -0.359375q0.4375 0 0.515625 0.3125q0.09375 0.3125 -0.1875 0.578125l-5.078125 4.6875l5.328125 4.9375q0.359375 0.328125 0.21875 0.65625q-0.125 0.328125 -0.5625 0.328125q-0.234375 0 -0.40625 -0.109375q-0.15625 -0.09375 -0.375 -0.296875l-5.46875 -5.015625l-0.03125 0l0 4.734375q0 0.6875 -0.65625 0.6875z" fill-rule="nonzero"/><path fill="#000000" fill-opacity="0.0" d="m504.4513 120.52202c0 28.453278 39.472473 42.678207 78.944885 56.906555c39.472412 14.228348 78.944885 28.460114 78.944885 56.92021" fill-rule="evenodd"/><path stroke="#6aa84f" stroke-width="2.0" stroke-linejoin="round" stroke-linecap="butt" d="m504.4513 120.522026c0 28.45327 39.472412 42.678215 78.944885 56.906548c19.736206 7.1141815 39.472412 14.229187 54.274597 23.1232c7.401062 4.446991 13.568665 9.33873 17.885925 14.897491c1.0793457 1.3896942 2.0430298 2.8210602 2.8814087 4.297592c0.41918945 0.73828125 0.8070679 1.4878235 1.1624756 2.2490997c0.08886719 0.19033813 0.17559814 0.38137817 0.26037598 0.57318115l0.015258789 0.03552246" fill-rule="evenodd"/><path fill="#6aa84f" stroke="#6aa84f" stroke-width="2.0" stroke-linecap="butt" d="m656.6432 223.28319l5.09729 8.204147l1.3687744 -9.561203z" fill-rule="evenodd"/><path fill="#000000" fill-opacity="0.0" d="m577.96497 150.55997l138.77167 0l0 37.16536l-138.77167 0z" fill-rule="evenodd"/><path fill="#000000" d="m588.83997 173.74934q-0.59375 0 -0.59375 -0.640625l0 -9.28125q0 -0.625 0.59375 -0.625q0.609375 0 0.609375 0.625l0 4.046875l6.1875 0l0 -4.046875q0 -0.625 0.609375 -0.625q0.59375 0 0.59375 0.625l0 9.28125q0 0.640625 -0.59375 0.640625q-0.609375 0 -0.609375 -0.640625l0 -4.1875l-6.1875 0l0 4.1875q0 0.640625 -0.609375 0.640625zm13.684692 0q-0.59375 0 -0.59375 -0.640625l0 -8.765625l-3.296875 0q-0.5625 0 -0.5625 -0.515625q0 -0.515625 0.5625 -0.515625l7.8125 0q0.546875 0 0.546875 0.515625q0 0.515625 -0.546875 0.515625l-3.296875 0l0 8.765625q0 0.640625 -0.625 0.640625zm8.984436 0q-0.59375 0 -0.59375 -0.640625l0 -8.765625l-3.296875 0q-0.5625 0 -0.5625 -0.515625q0 -0.515625 0.5625 -0.515625l7.8125 0q0.546875 0 0.546875 0.515625q0 0.515625 -0.546875 0.515625l-3.296875 0l0 8.765625q0 0.640625 -0.625 0.640625zm6.29187 0q-0.59375 0 -0.59375 -0.640625l0 -9.1875q0 -0.609375 0.609375 -0.609375l3.46875 0q1.671875 0 2.5625 0.8125q0.890625 0.796875 0.890625 2.296875q0 1.46875 -0.890625 2.28125q-0.890625 0.8125 -2.5625 0.8125l-2.875 0l0 3.59375q0 0.640625 -0.609375 0.640625zm0.609375 -5.234375l2.734375 0q2.40625 0 2.40625 -2.09375q0 -2.125 -2.40625 -2.125l-2.734375 0l0 4.21875zm11.402405 5.25q-1.046875 0 -1.984375 -0.25q-0.921875 -0.25 -1.59375 -0.75q-0.234375 -0.171875 -0.28125 -0.390625q-0.046875 -0.21875 0.046875 -0.40625q0.09375 -0.1875 0.28125 -0.25q0.203125 -0.078125 0.453125 0.09375q0.65625 0.484375 1.390625 0.6875q0.75 0.203125 1.6875 0.203125q1.328125 0 1.953125 -0.484375q0.640625 -0.5 0.640625 -1.296875q0 -0.65625 -0.46875 -1.03125q-0.453125 -0.390625 -1.53125 -0.609375l-1.53125 -0.296875q-1.375 -0.296875 -2.0625 -0.953125q-0.671875 -0.671875 -0.671875 -1.796875q0 -0.921875 0.46875 -1.609375q0.484375 -0.6875 1.328125 -1.0625q0.859375 -0.390625 1.96875 -0.390625q0.921875 0 1.71875 0.265625q0.796875 0.25 1.453125 0.765625q0.203125 0.15625 0.234375 0.375q0.046875 0.203125 -0.0625 0.390625q-0.109375 0.171875 -0.296875 0.234375q-0.1875 0.046875 -0.453125 -0.125q-0.578125 -0.453125 -1.21875 -0.640625q-0.640625 -0.1875 -1.390625 -0.1875q-1.15625 0 -1.84375 0.53125q-0.6875 0.53125 -0.6875 1.40625q0 0.71875 0.421875 1.125q0.4375 0.40625 1.421875 0.59375l1.53125 0.328125q1.46875 0.3125 2.171875 0.9375q0.71875 0.609375 0.71875 1.6875q0 0.859375 -0.46875 1.53125q-0.453125 0.65625 -1.3125 1.015625q-0.84375 0.359375 -2.03125 0.359375zm5.2901 0.375q-0.09375 0.25 -0.28125 0.328125q-0.171875 0.078125 -0.359375 0.015625q-0.1875 -0.046875 -0.28125 -0.21875q-0.109375 -0.15625 -0.03125 -0.40625l3.484375 -10.8125q0.078125 -0.234375 0.25 -0.3125q0.1875 -0.09375 0.375 -0.03125q0.1875 0.046875 0.296875 0.21875q0.109375 0.171875 0.015625 0.40625l-3.46875 10.8125zm8.515625 -0.390625q-0.484375 0 -0.6875 -0.5625l-3.25 -9.25q-0.09375 -0.328125 0.046875 -0.53125q0.140625 -0.203125 0.5 -0.203125q0.46875 0 0.640625 0.515625l2.765625 8.15625l2.84375 -8.109375q0.203125 -0.5625 0.65625 -0.5625q0.234375 0 0.375 0.140625q0.140625 0.140625 0.234375 0.421875l2.8125 8.1875l2.84375 -8.234375q0.15625 -0.515625 0.640625 -0.515625q0.296875 0 0.4375 0.203125q0.140625 0.203125 0.03125 0.53125l-3.25 9.25q-0.09375 0.28125 -0.25 0.421875q-0.15625 0.140625 -0.4375 0.140625q-0.265625 0 -0.421875 -0.140625q-0.15625 -0.140625 -0.265625 -0.421875l-2.78125 -8.046875l-2.8125 8.046875q-0.109375 0.28125 -0.265625 0.421875q-0.140625 0.140625 -0.40625 0.140625zm15.990906 0.015625q-1.046875 0 -1.984375 -0.25q-0.921875 -0.25 -1.59375 -0.75q-0.234375 -0.171875 -0.28125 -0.390625q-0.046875 -0.21875 0.046875 -0.40625q0.09375 -0.1875 0.28125 -0.25q0.203125 -0.078125 0.453125 0.09375q0.65625 0.484375 1.390625 0.6875q0.75 0.203125 1.6875 0.203125q1.328125 0 1.953125 -0.484375q0.640625 -0.5 0.640625 -1.296875q0 -0.65625 -0.46875 -1.03125q-0.453125 -0.390625 -1.53125 -0.609375l-1.53125 -0.296875q-1.375 -0.296875 -2.0625 -0.953125q-0.671875 -0.671875 -0.671875 -1.796875q0 -0.921875 0.46875 -1.609375q0.484375 -0.6875 1.328125 -1.0625q0.859375 -0.390625 1.96875 -0.390625q0.921875 0 1.71875 0.265625q0.796875 0.25 1.453125 0.765625q0.203125 0.15625 0.234375 0.375q0.046875 0.203125 -0.0625 0.390625q-0.109375 0.171875 -0.296875 0.234375q-0.1875 0.046875 -0.453125 -0.125q-0.578125 -0.453125 -1.21875 -0.640625q-0.640625 -0.1875 -1.390625 -0.1875q-1.15625 0 -1.84375 0.53125q-0.6875 0.53125 -0.6875 1.40625q0 0.71875 0.421875 1.125q0.4375 0.40625 1.421875 0.59375l1.53125 0.328125q1.46875 0.3125 2.171875 0.9375q0.71875 0.609375 0.71875 1.6875q0 0.859375 -0.46875 1.53125q-0.453125 0.65625 -1.3125 1.015625q-0.84375 0.359375 -2.03125 0.359375zm9.013611 0q-1.046875 0 -1.984375 -0.25q-0.921875 -0.25 -1.59375 -0.75q-0.234375 -0.171875 -0.28125 -0.390625q-0.046875 -0.21875 0.046875 -0.40625q0.09375 -0.1875 0.28125 -0.25q0.203125 -0.078125 0.453125 0.09375q0.65625 0.484375 1.390625 0.6875q0.75 0.203125 1.6875 0.203125q1.328125 0 1.953125 -0.484375q0.640625 -0.5 0.640625 -1.296875q0 -0.65625 -0.46875 -1.03125q-0.453125 -0.390625 -1.53125 -0.609375l-1.53125 -0.296875q-1.375 -0.296875 -2.0625 -0.953125q-0.671875 -0.671875 -0.671875 -1.796875q0 -0.921875 0.46875 -1.609375q0.484375 -0.6875 1.328125 -1.0625q0.859375 -0.390625 1.96875 -0.390625q0.921875 0 1.71875 0.265625q0.796875 0.25 1.453125 0.765625q0.203125 0.15625 0.234375 0.375q0.046875 0.203125 -0.0625 0.390625q-0.109375 0.171875 -0.296875 0.234375q-0.1875 0.046875 -0.453125 -0.125q-0.578125 -0.453125 -1.21875 -0.640625q-0.640625 -0.1875 -1.390625 -0.1875q-1.15625 0 -1.84375 0.53125q-0.6875 0.53125 -0.6875 1.40625q0 0.71875 0.421875 1.125q0.4375 0.40625 1.421875 0.59375l1.53125 0.328125q1.46875 0.3125 2.171875 0.9375q0.71875 0.609375 0.71875 1.6875q0 0.859375 -0.46875 1.53125q-0.453125 0.65625 -1.3125 1.015625q-0.84375 0.359375 -2.03125 0.359375z" fill-rule="nonzero"/><path fill="#000000" fill-opacity="0.0" d="m361.3808 150.6461l80.75592 0l0 37.16536l-80.75592 0z" fill-rule="evenodd"/><path fill="#000000" d="m374.97455 173.83548q-0.484375 0 -0.6875 -0.5625l-3.25 -9.25q-0.09375 -0.328125 0.046875 -0.53125q0.140625 -0.203125 0.5 -0.203125q0.46875 0 0.640625 0.515625l2.765625 8.15625l2.84375 -8.109375q0.203125 -0.5625 0.65625 -0.5625q0.234375 0 0.375 0.140625q0.140625 0.140625 0.234375 0.421875l2.8125 8.1875l2.84375 -8.234375q0.15625 -0.515625 0.640625 -0.515625q0.296875 0 0.4375 0.203125q0.140625 0.203125 0.03125 0.53125l-3.25 9.25q-0.09375 0.28125 -0.25 0.421875q-0.15625 0.140625 -0.4375 0.140625q-0.265625 0 -0.421875 -0.140625q-0.15625 -0.140625 -0.265625 -0.421875l-2.78125 -8.046875l-2.8125 8.046875q-0.109375 0.28125 -0.265625 0.421875q-0.140625 0.140625 -0.40625 0.140625zm15.005646 0.015625q-1.6875 0 -2.671875 -0.984375q-0.984375 -0.984375 -0.984375 -2.6875q0 -1.09375 0.4375 -1.9375q0.4375 -0.84375 1.203125 -1.296875q0.78125 -0.46875 1.796875 -0.46875q1.453125 0 2.265625 0.9375q0.828125 0.921875 0.828125 2.546875q0 0.453125 -0.515625 0.453125l-4.859375 0q0.0625 1.21875 0.703125 1.859375q0.65625 0.625 1.796875 0.625q0.484375 0 0.96875 -0.109375q0.5 -0.125 0.96875 -0.453125q0.34375 -0.21875 0.5625 -0.078125q0.234375 0.125 0.234375 0.390625q0.015625 0.265625 -0.296875 0.484375q-0.484375 0.34375 -1.15625 0.53125q-0.65625 0.1875 -1.28125 0.1875zm-0.1875 -6.5q-1.015625 0 -1.609375 0.640625q-0.578125 0.625 -0.6875 1.640625l4.328125 0q-0.046875 -1.078125 -0.578125 -1.671875q-0.515625 -0.609375 -1.453125 -0.609375zm8.375275 6.5q-0.828125 0 -1.484375 -0.359375q-0.640625 -0.375 -0.953125 -1.046875l0 0.765625q0 0.625 -0.578125 0.625q-0.59375 0 -0.59375 -0.625l0 -9.3125q0 -0.609375 0.59375 -0.609375q0.59375 0 0.59375 0.609375l0 3.9375q0.3125 -0.625 0.953125 -0.984375q0.65625 -0.375 1.46875 -0.375q0.953125 0 1.65625 0.453125q0.71875 0.4375 1.109375 1.265625q0.390625 0.828125 0.390625 1.96875q0 1.125 -0.390625 1.953125q-0.390625 0.828125 -1.109375 1.28125q-0.703125 0.453125 -1.65625 0.453125zm-0.25 -0.953125q1.0 0 1.59375 -0.703125q0.609375 -0.71875 0.609375 -2.03125q0 -1.328125 -0.609375 -2.03125q-0.59375 -0.703125 -1.59375 -0.703125q-1.0 0 -1.609375 0.703125q-0.59375 0.703125 -0.59375 2.03125q0 1.3125 0.59375 2.03125q0.609375 0.703125 1.609375 0.703125zm5.950897 0.9375q-0.59375 0 -0.59375 -0.640625l0 -9.1875q0 -0.609375 0.609375 -0.609375l3.46875 0q1.671875 0 2.5625 0.78125q0.890625 0.765625 0.890625 2.203125q0 1.140625 -0.625 1.875q-0.625 0.734375 -1.765625 0.953125q0.671875 0.234375 1.15625 1.140625l1.40625 2.625q0.15625 0.3125 0.046875 0.59375q-0.09375 0.265625 -0.453125 0.265625q-0.25 0 -0.421875 -0.109375q-0.15625 -0.125 -0.265625 -0.359375l-1.609375 -2.953125q-0.328125 -0.625 -0.765625 -0.84375q-0.4375 -0.21875 -1.15625 -0.21875l-1.875 0l0 3.84375q0 0.640625 -0.609375 0.640625zm0.609375 -5.421875l2.703125 0q2.4375 0 2.4375 -2.03125q0 -2.0 -2.4375 -2.0l-2.703125 0l0 4.03125zm11.433594 5.421875q-0.59375 0 -0.59375 -0.640625l0 -8.765625l-3.296875 0q-0.5625 0 -0.5625 -0.515625q0 -0.515625 0.5625 -0.515625l7.8125 0q0.546875 0 0.546875 0.515625q0 0.515625 -0.546875 0.515625l-3.296875 0l0 8.765625q0 0.640625 -0.625 0.640625zm9.521515 0.015625q-1.53125 0 -2.625 -0.640625q-1.078125 -0.640625 -1.65625 -1.828125q-0.578125 -1.1875 -0.578125 -2.828125q0 -1.625 0.578125 -2.8125q0.578125 -1.1875 1.65625 -1.828125q1.09375 -0.65625 2.625 -0.65625q0.90625 0 1.71875 0.265625q0.828125 0.265625 1.421875 0.75q0.25 0.171875 0.28125 0.40625q0.046875 0.234375 -0.078125 0.421875q-0.109375 0.1875 -0.328125 0.234375q-0.203125 0.046875 -0.46875 -0.140625q-1.046875 -0.828125 -2.515625 -0.828125q-1.75 0 -2.671875 1.09375q-0.921875 1.09375 -0.921875 3.09375q0 2.0 0.921875 3.109375q0.921875 1.09375 2.671875 1.09375q1.46875 0 2.546875 -0.84375q0.265625 -0.1875 0.46875 -0.140625q0.21875 0.046875 0.328125 0.234375q0.109375 0.171875 0.078125 0.390625q-0.03125 0.21875 -0.25 0.390625q-0.625 0.53125 -1.453125 0.796875q-0.8125 0.265625 -1.75 0.265625z" fill-rule="nonzero"/><path fill="#ffffff" d="m217.73491 234.33595l118.99211 0l0 213.41734l-118.99211 0z" fill-rule="evenodd"/><path stroke="#b7b7b7" stroke-width="1.0" stroke-linejoin="round" stroke-linecap="butt" d="m217.73491 234.33595l118.99211 0l0 213.41734l-118.99211 0z" fill-rule="evenodd"/><path fill="#000000" d="m259.95856 258.80533q-0.625 0 -0.625 -0.65625l0 -10.171875q0 -0.671875 0.578125 -0.671875q0.234375 0 0.359375 0.09375q0.140625 0.078125 0.296875 0.3125l6.59375 8.78125l0 -8.546875q0 -0.640625 0.625 -0.640625q0.59375 0 0.59375 0.640625l0 10.21875q0 0.640625 -0.53125 0.640625q-0.25 0 -0.390625 -0.09375q-0.140625 -0.09375 -0.296875 -0.296875l-6.59375 -8.828125l0 8.5625q0 0.65625 -0.609375 0.65625zm14.277527 0.03125q-1.140625 0 -1.984375 -0.484375q-0.828125 -0.5 -1.28125 -1.40625q-0.453125 -0.90625 -0.453125 -2.140625q0 -1.234375 0.453125 -2.125q0.453125 -0.90625 1.28125 -1.40625q0.84375 -0.5 1.984375 -0.5q1.109375 0 1.953125 0.5q0.84375 0.5 1.296875 1.40625q0.453125 0.890625 0.453125 2.125q0 1.234375 -0.453125 2.140625q-0.453125 0.90625 -1.296875 1.40625q-0.84375 0.484375 -1.953125 0.484375zm0 -1.03125q1.078125 0 1.734375 -0.78125q0.65625 -0.78125 0.65625 -2.21875q0 -1.453125 -0.65625 -2.21875q-0.65625 -0.765625 -1.734375 -0.765625q-1.109375 0 -1.765625 0.765625q-0.640625 0.765625 -0.640625 2.21875q0 1.4375 0.640625 2.21875q0.65625 0.78125 1.765625 0.78125zm8.614746 1.03125q-1.03125 0 -1.8125 -0.484375q-0.78125 -0.5 -1.203125 -1.40625q-0.421875 -0.90625 -0.421875 -2.140625q0 -1.25 0.421875 -2.140625q0.421875 -0.90625 1.203125 -1.390625q0.78125 -0.5 1.8125 -0.5q0.921875 0 1.609375 0.40625q0.703125 0.390625 1.03125 1.09375l0 -4.3125q0 -0.65625 0.65625 -0.65625q0.640625 0 0.640625 0.65625l0 10.171875q0 0.671875 -0.640625 0.671875q-0.640625 0 -0.640625 -0.671875l0 -0.828125q-0.34375 0.71875 -1.046875 1.125q-0.6875 0.40625 -1.609375 0.40625zm0.28125 -1.03125q1.078125 0 1.734375 -0.78125q0.65625 -0.78125 0.65625 -2.21875q0 -1.453125 -0.65625 -2.21875q-0.65625 -0.765625 -1.734375 -0.765625q-1.109375 0 -1.765625 0.765625q-0.640625 0.765625 -0.640625 2.21875q0 1.4375 0.640625 2.21875q0.65625 0.78125 1.765625 0.78125zm9.593658 1.03125q-1.84375 0 -2.921875 -1.078125q-1.0625 -1.078125 -1.0625 -2.9375q0 -1.203125 0.484375 -2.109375q0.484375 -0.921875 1.3125 -1.421875q0.84375 -0.515625 1.953125 -0.515625q1.578125 0 2.46875 1.015625q0.90625 1.015625 0.90625 2.796875q0 0.5 -0.5625 0.5l-5.296875 0q0.0625 1.328125 0.765625 2.03125q0.703125 0.6875 1.953125 0.6875q0.53125 0 1.078125 -0.140625q0.546875 -0.140625 1.046875 -0.484375q0.375 -0.25 0.625 -0.09375q0.25 0.140625 0.25 0.4375q0.015625 0.296875 -0.328125 0.515625q-0.53125 0.390625 -1.265625 0.59375q-0.71875 0.203125 -1.40625 0.203125zm-0.203125 -7.09375q-1.109375 0 -1.75 0.6875q-0.640625 0.6875 -0.75 1.796875l4.71875 0q-0.046875 -1.171875 -0.625 -1.828125q-0.5625 -0.65625 -1.59375 -0.65625z" fill-rule="nonzero"/><path fill="#cfe2f3" d="m223.68767 297.06714l0 0c0 -5.8853455 4.7710266 -10.656372 10.656372 -10.656372l83.15968 0c2.826233 0 5.536743 1.1227112 7.535187 3.1211853c1.9984741 1.9984436 3.1211853 4.708954 3.1211853 7.535187l0 42.624268c0 5.8853455 -4.7710266 10.656372 -10.656372 10.656372l-83.15968 0c-5.8853455 0 -10.656372 -4.7710266 -10.656372 -10.656372z" fill-rule="evenodd"/><path fill="#000000" d="m253.71434 305.23926q-0.671875 0 -0.671875 -0.6875l0 -9.984375q0 -0.6875 0.65625 -0.6875q0.65625 0 0.65625 0.6875l0 9.515625l5.2499847 0q0.609375 0 0.609375 0.578125q0 0.578125 -0.609375 0.578125l-5.8906097 0zm8.484879 -9.640625q-0.84375 0 -0.84375 -0.8125q0 -0.78125 0.84375 -0.78125q0.84375 0 0.84375 0.78125q0 0.8125 -0.84375 0.8125zm0 9.71875q-0.640625 0 -0.640625 -0.703125l0 -6.546875q0 -0.6875 0.640625 -0.6875q0.65625 0 0.65625 0.6875l0 6.546875q0 0.703125 -0.65625 0.703125zm5.9620056 0.03125q-0.5625 0 -0.828125 -0.625l-2.765625 -6.453125q-0.15625 -0.375 -0.015625 -0.640625q0.140625 -0.28125 0.578125 -0.28125q0.4375 0 0.65625 0.515625l2.40625 5.90625l2.453125 -5.90625q0.109375 -0.28125 0.25 -0.390625q0.140625 -0.125 0.421875 -0.125q0.359375 0 0.484375 0.28125q0.140625 0.265625 0 0.625l-2.8125 6.46875q-0.25 0.625 -0.828125 0.625zm8.737396 0.03125q-1.84375 0 -2.921875 -1.078125q-1.0625 -1.078125 -1.0625 -2.9375q0 -1.203125 0.484375 -2.109375q0.484375 -0.921875 1.3125 -1.421875q0.84375 -0.515625 1.953125 -0.515625q1.578125 0 2.46875 1.015625q0.90625 1.015625 0.90625 2.796875q0 0.5 -0.5625 0.5l-5.296875 0q0.0625 1.328125 0.765625 2.03125q0.703125 0.6875 1.953125 0.6875q0.53125 0 1.078125 -0.140625q0.546875 -0.140625 1.046875 -0.484375q0.375 -0.25 0.625 -0.09375q0.25 0.140625 0.25 0.4375q0.015625 0.296875 -0.328125 0.515625q-0.53125 0.390625 -1.265625 0.59375q-0.71875 0.203125 -1.40625 0.203125zm-0.203125 -7.09375q-1.109375 0 -1.75 0.6875q-0.640625 0.6875 -0.75 1.796875l4.71875 0q-0.046875 -1.171875 -0.625 -1.828125q-0.5625 -0.65625 -1.59375 -0.65625zm6.043274 7.0625q-0.65625 0 -0.65625 -0.6875l0 -10.140625q0 -0.671875 0.65625 -0.671875q0.65625 0 0.65625 0.671875l0 4.5625l0.03125 0l5.21875 -4.875q0.390625 -0.359375 0.796875 -0.359375q0.4375 0 0.515625 0.3125q0.09375 0.3125 -0.1875 0.578125l-5.078125 4.6875l5.328125 4.9375q0.359375 0.328125 0.21875 0.65625q-0.125 0.328125 -0.5625 0.328125q-0.234375 0 -0.40625 -0.109375q-0.15625 -0.09375 -0.375 -0.296875l-5.46875 -5.015625l-0.03125 0l0 4.734375q0 0.6875 -0.65625 0.6875zm10.004517 -9.75q-0.84375 0 -0.84375 -0.8125q0 -0.78125 0.84375 -0.78125q0.84375 0 0.84375 0.78125q0 0.8125 -0.84375 0.8125zm0 9.71875q-0.640625 0 -0.640625 -0.703125l0 -6.546875q0 -0.6875 0.640625 -0.6875q0.65625 0 0.65625 0.6875l0 6.546875q0 0.703125 -0.65625 0.703125zm6.1963806 0.0625q-1.390625 0 -2.078125 -0.71875q-0.6875 -0.734375 -0.6875 -2.109375l0 -4.078125l-1.0625 0q-0.5625 0 -0.5625 -0.515625q0 -0.5 0.5625 -0.5l1.0625 0l0 -1.828125q0 -0.65625 0.65625 -0.65625q0.640625 0 0.640625 0.65625l0 1.828125l2.015625 0q0.5625 0 0.5625 0.5q0 0.515625 -0.5625 0.515625l-2.015625 0l0 3.953125q0 0.90625 0.375 1.390625q0.390625 0.46875 1.265625 0.46875q0.296875 0 0.5 -0.0625q0.21875 -0.078125 0.375 -0.078125q0.140625 -0.015625 0.234375 0.109375q0.109375 0.109375 0.109375 0.375q0 0.1875 -0.078125 0.359375q-0.078125 0.15625 -0.25 0.21875q-0.1875 0.0625 -0.5 0.109375q-0.3125 0.0625 -0.5625 0.0625z" fill-rule="nonzero"/><path fill="#000000" d="m257.37558 324.37988q-0.71875 0 -1.453125 -0.171875q-0.734375 -0.1875 -1.34375 -0.609375q-0.296875 -0.171875 -0.296875 -0.453125q0.015625 -0.28125 0.21875 -0.4375q0.21875 -0.171875 0.53125 0q0.625 0.375 1.203125 0.53125q0.59375 0.15625 1.171875 0.15625q0.90625 0 1.375 -0.328125q0.46875 -0.34375 0.46875 -0.921875q0 -0.453125 -0.3125 -0.71875q-0.296875 -0.265625 -0.953125 -0.40625l-1.46875 -0.3125q-1.96875 -0.4375 -1.96875 -2.046875q0 -1.0625 0.828125 -1.703125q0.84375 -0.640625 2.203125 -0.640625q0.6875 0 1.328125 0.1875q0.640625 0.1875 1.15625 0.578125q0.265625 0.203125 0.234375 0.46875q-0.03125 0.265625 -0.25 0.421875q-0.21875 0.15625 -0.515625 -0.03125q-0.484375 -0.328125 -0.984375 -0.46875q-0.484375 -0.15625 -0.96875 -0.15625q-0.890625 0 -1.359375 0.359375q-0.46875 0.34375 -0.46875 0.921875q0 0.890625 1.1875 1.140625l1.453125 0.3125q1.03125 0.21875 1.546875 0.71875q0.53125 0.484375 0.53125 1.3125q0 1.0625 -0.84375 1.6875q-0.84375 0.609375 -2.25 0.609375zm8.571014 0q-1.84375 0 -2.921875 -1.078125q-1.0625 -1.078125 -1.0625 -2.9375q0 -1.203125 0.484375 -2.109375q0.484375 -0.921875 1.3125 -1.421875q0.84375 -0.515625 1.953125 -0.515625q1.578125 0 2.46875 1.015625q0.90625 1.015625 0.90625 2.796875q0 0.5 -0.5625 0.5l-5.296875 0q0.0625 1.328125 0.765625 2.03125q0.703125 0.6875 1.953125 0.6875q0.53125 0 1.078125 -0.140625q0.546875 -0.140625 1.046875 -0.484375q0.375 -0.25 0.625 -0.09375q0.25 0.140625 0.25 0.4375q0.015625 0.296875 -0.328125 0.515625q-0.53125 0.390625 -1.265625 0.59375q-0.71875 0.203125 -1.40625 0.203125zm-0.203125 -7.09375q-1.109375 0 -1.75 0.6875q-0.640625 0.6875 -0.75 1.796875l4.71875 0q-0.046875 -1.171875 -0.625 -1.828125q-0.5625 -0.65625 -1.59375 -0.65625zm5.871399 7.0625q-0.65625 0 -0.65625 -0.671875l0 -6.671875q0 -0.65625 0.625 -0.65625q0.640625 0 0.640625 0.65625l0 0.84375q0.3125 -0.734375 0.984375 -1.125q0.671875 -0.390625 1.609375 -0.421875q0.5 -0.046875 0.53125 0.515625q0.046875 0.5625 -0.5625 0.625l-0.265625 0.03125q-1.09375 0.09375 -1.671875 0.703125q-0.578125 0.59375 -0.578125 1.625l0 3.875q0 0.671875 -0.65625 0.671875zm8.442383 0q-0.5625 0 -0.828125 -0.625l-2.765625 -6.453125q-0.15625 -0.375 -0.015625 -0.640625q0.140625 -0.28125 0.578125 -0.28125q0.4375 0 0.65625 0.515625l2.40625 5.90625l2.453125 -5.90625q0.109375 -0.28125 0.25 -0.390625q0.140625 -0.125 0.421875 -0.125q0.359375 0 0.484375 0.28125q0.140625 0.265625 0 0.625l-2.8125 6.46875q-0.25 0.625 -0.828125 0.625zm8.737396 0.03125q-1.84375 0 -2.921875 -1.078125q-1.0625 -1.078125 -1.0625 -2.9375q0 -1.203125 0.484375 -2.109375q0.484375 -0.921875 1.3125 -1.421875q0.84375 -0.515625 1.953125 -0.515625q1.578125 0 2.46875 1.015625q0.90625 1.015625 0.90625 2.796875q0 0.5 -0.5625 0.5l-5.296875 0q0.0625 1.328125 0.765625 2.03125q0.703125 0.6875 1.953125 0.6875q0.53125 0 1.078125 -0.140625q0.546875 -0.140625 1.046875 -0.484375q0.375 -0.25 0.625 -0.09375q0.25 0.140625 0.25 0.4375q0.015625 0.296875 -0.328125 0.515625q-0.53125 0.390625 -1.265625 0.59375q-0.71875 0.203125 -1.40625 0.203125zm-0.203125 -7.09375q-1.109375 0 -1.75 0.6875q-0.640625 0.6875 -0.75 1.796875l4.71875 0q-0.046875 -1.171875 -0.625 -1.828125q-0.5625 -0.65625 -1.59375 -0.65625zm5.871399 7.0625q-0.65625 0 -0.65625 -0.671875l0 -6.671875q0 -0.65625 0.625 -0.65625q0.640625 0 0.640625 0.65625l0 0.84375q0.3125 -0.734375 0.984375 -1.125q0.671875 -0.390625 1.609375 -0.421875q0.5 -0.046875 0.53125 0.515625q0.046875 0.5625 -0.5625 0.625l-0.265625 0.03125q-1.09375 0.09375 -1.671875 0.703125q-0.578125 0.59375 -0.578125 1.625l0 3.875q0 0.671875 -0.65625 0.671875z" fill-rule="nonzero"/><path fill="#000000" d="m264.00723 346.22363q-0.640625 0 -0.640625 -0.640625l0 -9.578125q0 -0.65625 0.625 -0.65625q0.65625 0 0.65625 0.65625l0 0.828125q0.328125 -0.703125 1.03125 -1.109375q0.703125 -0.40625 1.625 -0.40625q1.03125 0 1.8125 0.5q0.78125 0.484375 1.203125 1.390625q0.421875 0.890625 0.421875 2.140625q0 1.234375 -0.421875 2.140625q-0.421875 0.90625 -1.203125 1.40625q-0.78125 0.484375 -1.8125 0.484375q-0.90625 0 -1.609375 -0.390625q-0.703125 -0.40625 -1.03125 -1.109375l0 3.703125q0 0.640625 -0.65625 0.640625zm3.015625 -3.875q1.09375 0 1.75 -0.78125q0.65625 -0.78125 0.65625 -2.21875q0 -1.453125 -0.65625 -2.21875q-0.65625 -0.765625 -1.75 -0.765625q-1.078125 0 -1.734375 0.765625q-0.65625 0.765625 -0.65625 2.21875q0 1.4375 0.65625 2.21875q0.65625 0.78125 1.734375 0.78125zm8.906158 1.03125q-1.140625 0 -1.984375 -0.484375q-0.828125 -0.5 -1.28125 -1.40625q-0.453125 -0.90625 -0.453125 -2.140625q0 -1.234375 0.453125 -2.125q0.453125 -0.90625 1.28125 -1.40625q0.84375 -0.5 1.984375 -0.5q1.109375 0 1.953125 0.5q0.84375 0.5 1.296875 1.40625q0.453125 0.890625 0.453125 2.125q0 1.234375 -0.453125 2.140625q-0.453125 0.90625 -1.296875 1.40625q-0.84375 0.484375 -1.953125 0.484375zm0 -1.03125q1.078125 0 1.734375 -0.78125q0.65625 -0.78125 0.65625 -2.21875q0 -1.453125 -0.65625 -2.21875q-0.65625 -0.765625 -1.734375 -0.765625q-1.109375 0 -1.765625 0.765625q-0.640625 0.765625 -0.640625 2.21875q0 1.4375 0.640625 2.21875q0.65625 0.78125 1.765625 0.78125zm8.614746 1.03125q-1.03125 0 -1.8125 -0.484375q-0.78125 -0.5 -1.203125 -1.40625q-0.421875 -0.90625 -0.421875 -2.140625q0 -1.25 0.421875 -2.140625q0.421875 -0.90625 1.203125 -1.390625q0.78125 -0.5 1.8125 -0.5q0.921875 0 1.609375 0.40625q0.703125 0.390625 1.03125 1.09375l0 -4.3125q0 -0.65625 0.65625 -0.65625q0.640625 0 0.640625 0.65625l0 10.171875q0 0.671875 -0.640625 0.671875q-0.640625 0 -0.640625 -0.671875l0 -0.828125q-0.34375 0.71875 -1.046875 1.125q-0.6875 0.40625 -1.609375 0.40625zm0.28125 -1.03125q1.078125 0 1.734375 -0.78125q0.65625 -0.78125 0.65625 -2.21875q0 -1.453125 -0.65625 -2.21875q-0.65625 -0.765625 -1.734375 -0.765625q-1.109375 0 -1.765625 0.765625q-0.640625 0.765625 -0.640625 2.21875q0 1.4375 0.640625 2.21875q0.65625 0.78125 1.765625 0.78125z" fill-rule="nonzero"/><path fill="#000000" fill-opacity="0.0" d="m275.9239 350.34778c0 44.011383 15.417328 66.01886 30.834625 88.0228c15.417328 22.003937 30.834656 44.004333 30.834656 88.0087" fill-rule="evenodd"/><path stroke="#999999" stroke-width="1.0" stroke-linejoin="round" stroke-linecap="butt" d="m276.02246 356.34695l0.0014648438 0.04714966c0.022033691 0.65618896 0.047698975 1.307251 0.07684326 1.9533081c0.11669922 2.5841675 0.28985596 5.087799 0.51568604 7.5161743c0.45169067 4.8567505 1.1141357 9.412689 1.9572754 13.710754c1.6862793 8.5961 4.0952454 16.160736 6.9859924 23.037628c5.781494 13.753754 13.490143 24.756622 21.198822 35.758606c7.7086487 11.001953 15.417297 22.003021 21.198792 35.75418c2.890747 6.87558 5.299713 14.43866 6.9859924 23.033142c0.84313965 4.2972107 1.5055847 8.852264 1.9572754 13.708191c0.22583008 2.4279785 0.39898682 4.9310913 0.51568604 7.5148315c0.029144287 0.64593506 0.05480957 1.296875 0.07684326 1.9530029l0.0014038086 0.046142578" fill-rule="evenodd"/><path fill="#999999" stroke="#999999" stroke-width="1.0" stroke-linecap="butt" d="m277.67398 356.31982l-1.7260742 -4.5103455l-1.5769348 4.5646057z" fill-rule="evenodd"/><path fill="#999999" stroke="#999999" stroke-width="1.0" stroke-linecap="butt" d="m335.84305 520.4072l1.7261047 4.510315l1.5769043 -4.564636z" fill-rule="evenodd"/><path fill="#000000" fill-opacity="0.0" d="m662.33856 339.042c0 12.499939 -65.6225 24.710663 -116.75006 24.999908c-51.127625 0.2892151 -87.760376 -11.343018 -116.75012 -22.830658c-28.989746 -11.48764 -50.336517 -22.830658 -100.673035 -22.830658" fill-rule="evenodd"/><path stroke="#6aa84f" stroke-width="2.0" stroke-linejoin="round" stroke-linecap="butt" stroke-dasharray="8.0,6.0" d="m662.33856 339.042c0 12.4999695 -65.6225 24.710663 -116.75006 24.999908c-51.127625 0.2892151 -87.760376 -11.343048 -116.75012 -22.830658c-14.494873 -5.7438354 -27.07898 -11.451477 -42.331482 -15.723206c-7.626251 -2.1358643 -15.919556 -3.9127197 -25.452362 -5.1556396c-4.766388 -0.62142944 -9.842621 -1.109375 -15.3003235 -1.4419861c-1.3644104 -0.0831604 -2.7526855 -0.1565857 -4.1658936 -0.2199707c-0.353302 -0.015838623 -0.7081604 -0.031066895 -1.0646057 -0.045654297l-0.3605652 -0.0140686035" fill-rule="evenodd"/><path fill="#6aa84f" stroke="#6aa84f" stroke-width="2.0" stroke-linecap="butt" d="m340.2265 315.3079l-9.137878 3.1287537l9.011169 3.4769592z" fill-rule="evenodd"/><path fill="#ffffff" d="m345.4252 234.33595l118.99213 0l0 213.41734l-118.99213 0z" fill-rule="evenodd"/><path stroke="#b7b7b7" stroke-width="1.0" stroke-linejoin="round" stroke-linecap="butt" d="m345.4252 234.33595l118.99213 0l0 213.41734l-118.99213 0z" fill-rule="evenodd"/><path fill="#000000" d="m387.64883 258.80533q-0.625 0 -0.625 -0.65625l0 -10.171875q0 -0.671875 0.578125 -0.671875q0.234375 0 0.359375 0.09375q0.140625 0.078125 0.296875 0.3125l6.59375 8.78125l0 -8.546875q0 -0.640625 0.625 -0.640625q0.59375 0 0.59375 0.640625l0 10.21875q0 0.640625 -0.53125 0.640625q-0.25 0 -0.390625 -0.09375q-0.140625 -0.09375 -0.296875 -0.296875l-6.59375 -8.828125l0 8.5625q0 0.65625 -0.609375 0.65625zm14.277527 0.03125q-1.140625 0 -1.984375 -0.484375q-0.828125 -0.5 -1.28125 -1.40625q-0.453125 -0.90625 -0.453125 -2.140625q0 -1.234375 0.453125 -2.125q0.453125 -0.90625 1.28125 -1.40625q0.84375 -0.5 1.984375 -0.5q1.109375 0 1.953125 0.5q0.84375 0.5 1.296875 1.40625q0.453125 0.890625 0.453125 2.125q0 1.234375 -0.453125 2.140625q-0.453125 0.90625 -1.296875 1.40625q-0.84375 0.484375 -1.953125 0.484375zm0 -1.03125q1.078125 0 1.734375 -0.78125q0.65625 -0.78125 0.65625 -2.21875q0 -1.453125 -0.65625 -2.21875q-0.65625 -0.765625 -1.734375 -0.765625q-1.109375 0 -1.765625 0.765625q-0.640625 0.765625 -0.640625 2.21875q0 1.4375 0.640625 2.21875q0.65625 0.78125 1.765625 0.78125zm8.614777 1.03125q-1.03125 0 -1.8125 -0.484375q-0.78125 -0.5 -1.203125 -1.40625q-0.421875 -0.90625 -0.421875 -2.140625q0 -1.25 0.421875 -2.140625q0.421875 -0.90625 1.203125 -1.390625q0.78125 -0.5 1.8125 -0.5q0.921875 0 1.609375 0.40625q0.703125 0.390625 1.03125 1.09375l0 -4.3125q0 -0.65625 0.65625 -0.65625q0.640625 0 0.640625 0.65625l0 10.171875q0 0.671875 -0.640625 0.671875q-0.640625 0 -0.640625 -0.671875l0 -0.828125q-0.34375 0.71875 -1.046875 1.125q-0.6875 0.40625 -1.609375 0.40625zm0.28125 -1.03125q1.078125 0 1.734375 -0.78125q0.65625 -0.78125 0.65625 -2.21875q0 -1.453125 -0.65625 -2.21875q-0.65625 -0.765625 -1.734375 -0.765625q-1.109375 0 -1.765625 0.765625q-0.640625 0.765625 -0.640625 2.21875q0 1.4375 0.640625 2.21875q0.65625 0.78125 1.765625 0.78125zm9.593628 1.03125q-1.84375 0 -2.921875 -1.078125q-1.0625 -1.078125 -1.0625 -2.9375q0 -1.203125 0.484375 -2.109375q0.484375 -0.921875 1.3125 -1.421875q0.84375 -0.515625 1.953125 -0.515625q1.578125 0 2.46875 1.015625q0.90625 1.015625 0.90625 2.796875q0 0.5 -0.5625 0.5l-5.296875 0q0.0625 1.328125 0.765625 2.03125q0.703125 0.6875 1.953125 0.6875q0.53125 0 1.078125 -0.140625q0.546875 -0.140625 1.046875 -0.484375q0.375 -0.25 0.625 -0.09375q0.25 0.140625 0.25 0.4375q0.015625 0.296875 -0.328125 0.515625q-0.53125 0.390625 -1.265625 0.59375q-0.71875 0.203125 -1.40625 0.203125zm-0.203125 -7.09375q-1.109375 0 -1.75 0.6875q-0.640625 0.6875 -0.75 1.796875l4.71875 0q-0.046875 -1.171875 -0.625 -1.828125q-0.5625 -0.65625 -1.59375 -0.65625z" fill-rule="nonzero"/><path fill="#000000" fill-opacity="0.0" d="m404.92126 286.41077c0 -41.472443 24.881897 -62.208664 49.763763 -82.944885c24.881897 -20.736221 49.763794 -41.472443 49.763794 -82.94488" fill-rule="evenodd"/><path stroke="#666666" stroke-width="1.0" stroke-linejoin="round" stroke-linecap="butt" d="m405.10147 280.41348l0.03894043 -0.6241455c0.020721436 -0.3067627 0.042816162 -0.6123352 0.06637573 -0.9167175c0.18829346 -2.435089 0.46774292 -4.7942505 0.83221436 -7.0825195c0.7289734 -4.576538 1.7980957 -8.869568 3.158844 -12.919617c2.7214355 -8.100098 6.609253 -15.22818 11.274597 -21.708252c9.330719 -12.960129 21.771637 -23.328247 34.212585 -33.69635c24.881897 -20.736221 49.763794 -41.472443 49.763794 -82.944885" fill-rule="evenodd"/><path fill="#666666" stroke="#666666" stroke-width="1.0" stroke-linecap="butt" d="m403.45047 280.36386l1.514679 4.585663l1.7872925 -4.48645z" fill-rule="evenodd"/><path fill="#cfe2f3" d="m352.68503 297.06714l0 0c0 -5.8853455 4.7710266 -10.656372 10.656403 -10.656372l83.15967 0c2.826233 0 5.536743 1.1227112 7.535187 3.1211853c1.9984741 1.9984436 3.1211853 4.708954 3.1211853 7.535187l0 42.624268c0 5.8853455 -4.7710266 10.656372 -10.656372 10.656372l-83.15967 0c-5.885376 0 -10.656403 -4.7710266 -10.656403 -10.656372z" fill-rule="evenodd"/><path fill="#000000" d="m382.7117 305.23926q-0.671875 0 -0.671875 -0.6875l0 -9.984375q0 -0.6875 0.65625 -0.6875q0.65625 0 0.65625 0.6875l0 9.515625l5.25 0q0.609375 0 0.609375 0.578125q0 0.578125 -0.609375 0.578125l-5.890625 0zm8.484894 -9.640625q-0.84375 0 -0.84375 -0.8125q0 -0.78125 0.84375 -0.78125q0.84375 0 0.84375 0.78125q0 0.8125 -0.84375 0.8125zm0 9.71875q-0.640625 0 -0.640625 -0.703125l0 -6.546875q0 -0.6875 0.640625 -0.6875q0.65625 0 0.65625 0.6875l0 6.546875q0 0.703125 -0.65625 0.703125zm5.9620056 0.03125q-0.5625 0 -0.828125 -0.625l-2.765625 -6.453125q-0.15625 -0.375 -0.015625 -0.640625q0.140625 -0.28125 0.578125 -0.28125q0.4375 0 0.65625 0.515625l2.40625 5.90625l2.453125 -5.90625q0.109375 -0.28125 0.25 -0.390625q0.140625 -0.125 0.421875 -0.125q0.359375 0 0.484375 0.28125q0.140625 0.265625 0 0.625l-2.8125 6.46875q-0.25 0.625 -0.828125 0.625zm8.737396 0.03125q-1.84375 0 -2.921875 -1.078125q-1.0625 -1.078125 -1.0625 -2.9375q0 -1.203125 0.484375 -2.109375q0.484375 -0.921875 1.3125 -1.421875q0.84375 -0.515625 1.953125 -0.515625q1.578125 0 2.46875 1.015625q0.90625 1.015625 0.90625 2.796875q0 0.5 -0.5625 0.5l-5.296875 0q0.0625 1.328125 0.765625 2.03125q0.703125 0.6875 1.953125 0.6875q0.53125 0 1.078125 -0.140625q0.546875 -0.140625 1.046875 -0.484375q0.375 -0.25 0.625 -0.09375q0.25 0.140625 0.25 0.4375q0.015625 0.296875 -0.328125 0.515625q-0.53125 0.390625 -1.265625 0.59375q-0.71875 0.203125 -1.40625 0.203125zm-0.203125 -7.09375q-1.109375 0 -1.75 0.6875q-0.640625 0.6875 -0.75 1.796875l4.71875 0q-0.046875 -1.171875 -0.625 -1.828125q-0.5625 -0.65625 -1.59375 -0.65625zm6.043274 7.0625q-0.65625 0 -0.65625 -0.6875l0 -10.140625q0 -0.671875 0.65625 -0.671875q0.65625 0 0.65625 0.671875l0 4.5625l0.03125 0l5.21875 -4.875q0.390625 -0.359375 0.796875 -0.359375q0.4375 0 0.515625 0.3125q0.09375 0.3125 -0.1875 0.578125l-5.078125 4.6875l5.328125 4.9375q0.359375 0.328125 0.21875 0.65625q-0.125 0.328125 -0.5625 0.328125q-0.234375 0 -0.40625 -0.109375q-0.15625 -0.09375 -0.375 -0.296875l-5.46875 -5.015625l-0.03125 0l0 4.734375q0 0.6875 -0.65625 0.6875zm10.004517 -9.75q-0.84375 0 -0.84375 -0.8125q0 -0.78125 0.84375 -0.78125q0.84375 0 0.84375 0.78125q0 0.8125 -0.84375 0.8125zm0 9.71875q-0.640625 0 -0.640625 -0.703125l0 -6.546875q0 -0.6875 0.640625 -0.6875q0.65625 0 0.65625 0.6875l0 6.546875q0 0.703125 -0.65625 0.703125zm6.1963806 0.0625q-1.390625 0 -2.078125 -0.71875q-0.6875 -0.734375 -0.6875 -2.109375l0 -4.078125l-1.0625 0q-0.5625 0 -0.5625 -0.515625q0 -0.5 0.5625 -0.5l1.0625 0l0 -1.828125q0 -0.65625 0.65625 -0.65625q0.640625 0 0.640625 0.65625l0 1.828125l2.015625 0q0.5625 0 0.5625 0.5q0 0.515625 -0.5625 0.515625l-2.015625 0l0 3.953125q0 0.90625 0.375 1.390625q0.390625 0.46875 1.265625 0.46875q0.296875 0 0.5 -0.0625q0.21875 -0.078125 0.375 -0.078125q0.140625 -0.015625 0.234375 0.109375q0.109375 0.109375 0.109375 0.375q0 0.1875 -0.078125 0.359375q-0.078125 0.15625 -0.25 0.21875q-0.1875 0.0625 -0.5 0.109375q-0.3125 0.0625 -0.5625 0.0625z" fill-rule="nonzero"/><path fill="#000000" d="m386.37296 324.37988q-0.71875 0 -1.453125 -0.171875q-0.734375 -0.1875 -1.34375 -0.609375q-0.296875 -0.171875 -0.296875 -0.453125q0.015625 -0.28125 0.21875 -0.4375q0.21875 -0.171875 0.53125 0q0.625 0.375 1.203125 0.53125q0.59375 0.15625 1.171875 0.15625q0.90625 0 1.375 -0.328125q0.46875 -0.34375 0.46875 -0.921875q0 -0.453125 -0.3125 -0.71875q-0.296875 -0.265625 -0.953125 -0.40625l-1.46875 -0.3125q-1.96875 -0.4375 -1.96875 -2.046875q0 -1.0625 0.828125 -1.703125q0.84375 -0.640625 2.203125 -0.640625q0.6875 0 1.328125 0.1875q0.640625 0.1875 1.15625 0.578125q0.265625 0.203125 0.234375 0.46875q-0.03125 0.265625 -0.25 0.421875q-0.21875 0.15625 -0.515625 -0.03125q-0.484375 -0.328125 -0.984375 -0.46875q-0.484375 -0.15625 -0.96875 -0.15625q-0.890625 0 -1.359375 0.359375q-0.46875 0.34375 -0.46875 0.921875q0 0.890625 1.1875 1.140625l1.453125 0.3125q1.03125 0.21875 1.546875 0.71875q0.53125 0.484375 0.53125 1.3125q0 1.0625 -0.84375 1.6875q-0.84375 0.609375 -2.25 0.609375zm8.571014 0q-1.84375 0 -2.921875 -1.078125q-1.0625 -1.078125 -1.0625 -2.9375q0 -1.203125 0.484375 -2.109375q0.484375 -0.921875 1.3125 -1.421875q0.84375 -0.515625 1.953125 -0.515625q1.578125 0 2.46875 1.015625q0.90625 1.015625 0.90625 2.796875q0 0.5 -0.5625 0.5l-5.296875 0q0.0625 1.328125 0.765625 2.03125q0.703125 0.6875 1.953125 0.6875q0.53125 0 1.078125 -0.140625q0.546875 -0.140625 1.046875 -0.484375q0.375 -0.25 0.625 -0.09375q0.25 0.140625 0.25 0.4375q0.015625 0.296875 -0.328125 0.515625q-0.53125 0.390625 -1.265625 0.59375q-0.71875 0.203125 -1.40625 0.203125zm-0.203125 -7.09375q-1.109375 0 -1.75 0.6875q-0.640625 0.6875 -0.75 1.796875l4.71875 0q-0.046875 -1.171875 -0.625 -1.828125q-0.5625 -0.65625 -1.59375 -0.65625zm5.871399 7.0625q-0.65625 0 -0.65625 -0.671875l0 -6.671875q0 -0.65625 0.625 -0.65625q0.640625 0 0.640625 0.65625l0 0.84375q0.3125 -0.734375 0.984375 -1.125q0.671875 -0.390625 1.609375 -0.421875q0.5 -0.046875 0.53125 0.515625q0.046875 0.5625 -0.5625 0.625l-0.265625 0.03125q-1.09375 0.09375 -1.671875 0.703125q-0.578125 0.59375 -0.578125 1.625l0 3.875q0 0.671875 -0.65625 0.671875zm8.442383 0q-0.5625 0 -0.828125 -0.625l-2.765625 -6.453125q-0.15625 -0.375 -0.015625 -0.640625q0.140625 -0.28125 0.578125 -0.28125q0.4375 0 0.65625 0.515625l2.40625 5.90625l2.453125 -5.90625q0.109375 -0.28125 0.25 -0.390625q0.140625 -0.125 0.421875 -0.125q0.359375 0 0.484375 0.28125q0.140625 0.265625 0 0.625l-2.8125 6.46875q-0.25 0.625 -0.828125 0.625zm8.737396 0.03125q-1.84375 0 -2.921875 -1.078125q-1.0625 -1.078125 -1.0625 -2.9375q0 -1.203125 0.484375 -2.109375q0.484375 -0.921875 1.3125 -1.421875q0.84375 -0.515625 1.953125 -0.515625q1.578125 0 2.46875 1.015625q0.90625 1.015625 0.90625 2.796875q0 0.5 -0.5625 0.5l-5.296875 0q0.0625 1.328125 0.765625 2.03125q0.703125 0.6875 1.953125 0.6875q0.53125 0 1.078125 -0.140625q0.546875 -0.140625 1.046875 -0.484375q0.375 -0.25 0.625 -0.09375q0.25 0.140625 0.25 0.4375q0.015625 0.296875 -0.328125 0.515625q-0.53125 0.390625 -1.265625 0.59375q-0.71875 0.203125 -1.40625 0.203125zm-0.203125 -7.09375q-1.109375 0 -1.75 0.6875q-0.640625 0.6875 -0.75 1.796875l4.71875 0q-0.046875 -1.171875 -0.625 -1.828125q-0.5625 -0.65625 -1.59375 -0.65625zm5.871399 7.0625q-0.65625 0 -0.65625 -0.671875l0 -6.671875q0 -0.65625 0.625 -0.65625q0.640625 0 0.640625 0.65625l0 0.84375q0.3125 -0.734375 0.984375 -1.125q0.671875 -0.390625 1.609375 -0.421875q0.5 -0.046875 0.53125 0.515625q0.046875 0.5625 -0.5625 0.625l-0.265625 0.03125q-1.09375 0.09375 -1.671875 0.703125q-0.578125 0.59375 -0.578125 1.625l0 3.875q0 0.671875 -0.65625 0.671875z" fill-rule="nonzero"/><path fill="#000000" d="m393.0046 346.22363q-0.640625 0 -0.640625 -0.640625l0 -9.578125q0 -0.65625 0.625 -0.65625q0.65625 0 0.65625 0.65625l0 0.828125q0.328125 -0.703125 1.03125 -1.109375q0.703125 -0.40625 1.625 -0.40625q1.03125 0 1.8125 0.5q0.78125 0.484375 1.203125 1.390625q0.421875 0.890625 0.421875 2.140625q0 1.234375 -0.421875 2.140625q-0.421875 0.90625 -1.203125 1.40625q-0.78125 0.484375 -1.8125 0.484375q-0.90625 0 -1.609375 -0.390625q-0.703125 -0.40625 -1.03125 -1.109375l0 3.703125q0 0.640625 -0.65625 0.640625zm3.015625 -3.875q1.09375 0 1.75 -0.78125q0.65625 -0.78125 0.65625 -2.21875q0 -1.453125 -0.65625 -2.21875q-0.65625 -0.765625 -1.75 -0.765625q-1.078125 0 -1.734375 0.765625q-0.65625 0.765625 -0.65625 2.21875q0 1.4375 0.65625 2.21875q0.65625 0.78125 1.734375 0.78125zm8.906158 1.03125q-1.140625 0 -1.984375 -0.484375q-0.828125 -0.5 -1.28125 -1.40625q-0.453125 -0.90625 -0.453125 -2.140625q0 -1.234375 0.453125 -2.125q0.453125 -0.90625 1.28125 -1.40625q0.84375 -0.5 1.984375 -0.5q1.109375 0 1.953125 0.5q0.84375 0.5 1.296875 1.40625q0.453125 0.890625 0.453125 2.125q0 1.234375 -0.453125 2.140625q-0.453125 0.90625 -1.296875 1.40625q-0.84375 0.484375 -1.953125 0.484375zm0 -1.03125q1.078125 0 1.734375 -0.78125q0.65625 -0.78125 0.65625 -2.21875q0 -1.453125 -0.65625 -2.21875q-0.65625 -0.765625 -1.734375 -0.765625q-1.109375 0 -1.765625 0.765625q-0.640625 0.765625 -0.640625 2.21875q0 1.4375 0.640625 2.21875q0.65625 0.78125 1.765625 0.78125zm8.614746 1.03125q-1.03125 0 -1.8125 -0.484375q-0.78125 -0.5 -1.203125 -1.40625q-0.421875 -0.90625 -0.421875 -2.140625q0 -1.25 0.421875 -2.140625q0.421875 -0.90625 1.203125 -1.390625q0.78125 -0.5 1.8125 -0.5q0.921875 0 1.609375 0.40625q0.703125 0.390625 1.03125 1.09375l0 -4.3125q0 -0.65625 0.65625 -0.65625q0.640625 0 0.640625 0.65625l0 10.171875q0 0.671875 -0.640625 0.671875q-0.640625 0 -0.640625 -0.671875l0 -0.828125q-0.34375 0.71875 -1.046875 1.125q-0.6875 0.40625 -1.609375 0.40625zm0.28125 -1.03125q1.078125 0 1.734375 -0.78125q0.65625 -0.78125 0.65625 -2.21875q0 -1.453125 -0.65625 -2.21875q-0.65625 -0.765625 -1.734375 -0.765625q-1.109375 0 -1.765625 0.765625q-0.640625 0.765625 -0.640625 2.21875q0 1.4375 0.640625 2.21875q0.65625 0.78125 1.765625 0.78125z" fill-rule="nonzero"/><path fill="#000000" fill-opacity="0.0" d="m662.33856 339.042c0 12.499939 -46.273254 24.710663 -84.50006 24.999908c-38.226807 0.2892151 -68.407135 -11.343018 -84.50003 -22.830658c-16.092926 -11.48764 -18.098389 -22.830658 -36.196747 -22.830658" fill-rule="evenodd"/><path stroke="#6aa84f" stroke-width="2.0" stroke-linejoin="round" stroke-linecap="butt" stroke-dasharray="8.0,6.0" d="m662.33856 339.042c0 12.4999695 -46.273254 24.710663 -84.50006 24.999908c-38.226807 0.2892151 -68.407166 -11.343048 -84.50003 -22.830658c-8.046478 -5.7438354 -12.571045 -11.451477 -17.346344 -15.723206c-1.1938171 -1.0679321 -2.4032898 -2.046112 -3.687378 -2.9126587c-0.6420593 -0.43328857 -1.3027649 -0.83865356 -1.989502 -1.2134094c-0.34335327 -0.18737793 -0.6932373 -0.36706543 -1.0505371 -0.5387573c-0.08929443 -0.042938232 -0.17907715 -0.085357666 -0.26934814 -0.12728882l-0.072631836 -0.03314209" fill-rule="evenodd"/><path fill="#6aa84f" stroke="#6aa84f" stroke-width="2.0" stroke-linecap="butt" d="m469.55096 317.4196l-9.538788 1.5170593l8.282288 4.9692993z" fill-rule="evenodd"/><path fill="#000000" fill-opacity="0.0" d="m404.92126 350.34778c0 44.011383 -16.834656 66.01886 -33.66931 88.0228c-16.834625 22.003937 -33.66928 44.004333 -33.66928 88.0087" fill-rule="evenodd"/><path stroke="#999999" stroke-width="1.0" stroke-linejoin="round" stroke-linecap="butt" d="m404.8136 356.34677l-0.0015869141 0.047332764c-0.02407837 0.65618896 -0.052093506 1.307251 -0.08392334 1.9533081c-0.12741089 2.5841675 -0.3164673 5.087799 -0.5630493 7.5161743c-0.49319458 4.8567505 -1.2165833 9.412689 -2.1372375 13.710754c-1.8412781 8.5961 -4.47171 16.160736 -7.6282043 23.037628c-6.3129883 13.753754 -14.730316 24.756622 -23.147614 35.758606c-8.417328 11.001953 -16.834656 22.003021 -23.147644 35.75418c-3.1564941 6.87558 -5.7869263 14.43866 -7.6282043 23.033142c-0.9206543 4.2972107 -1.6440125 8.852264 -2.1372375 13.708191c-0.24658203 2.4279785 -0.43563843 4.9310913 -0.5630493 7.5148315c-0.03186035 0.64593506 -0.05984497 1.296875 -0.08395386 1.9530029l-0.0015563965 0.046325684" fill-rule="evenodd"/><path fill="#999999" stroke="#999999" stroke-width="1.0" stroke-linecap="butt" d="m406.4651 356.37643l-1.5700684 -4.566986l-1.7328796 4.507721z" fill-rule="evenodd"/><path fill="#999999" stroke="#999999" stroke-width="1.0" stroke-linecap="butt" d="m336.03888 520.3506l1.5700378 4.5670166l1.7329102 -4.5077515z" fill-rule="evenodd"/><path fill="#000000" fill-opacity="0.0" d="m275.9239 286.41077c0 -41.472443 57.13385 -62.208664 114.2677 -82.944885c57.13388 -20.736221 114.26773 -41.472443 114.26773 -82.94488" fill-rule="evenodd"/><path stroke="#666666" stroke-width="1.0" stroke-linejoin="round" stroke-linecap="butt" d="m276.33435 280.42484l0.024047852 -0.17443848c0.022094727 -0.1539917 0.045013428 -0.30767822 0.0687561 -0.46105957c0.04748535 -0.3067627 0.0982666 -0.6123352 0.15231323 -0.9167175c0.43243408 -2.435089 1.0740662 -4.7942505 1.9109802 -7.0825195c1.6738281 -4.576538 4.1288147 -8.869568 7.2533264 -12.919617c6.248993 -8.100098 15.176178 -15.22818 25.888763 -21.708252c21.425201 -12.960129 49.992126 -23.328247 78.55905 -33.69635c57.13388 -20.736221 114.26773 -41.472443 114.26773 -82.944885" fill-rule="evenodd"/><path fill="#666666" stroke="#666666" stroke-width="1.0" stroke-linecap="butt" d="m274.6865 280.31183l1.3374023 4.640442l1.9583435 -4.414459z" fill-rule="evenodd"/><path fill="#ffffff" d="m529.5197 301.87665l265.63776 0l0 37.165344l-265.63776 0z" fill-rule="evenodd"/><path stroke="#b7b7b7" stroke-width="1.0" stroke-linejoin="round" stroke-linecap="butt" d="m529.5197 301.87665l265.63776 0l0 37.165344l-265.63776 0z" fill-rule="evenodd"/><path fill="#000000" d="m641.2494 326.45993q-1.15625 0 -2.171875 -0.28125q-1.015625 -0.28125 -1.75 -0.8125q-0.265625 -0.1875 -0.3125 -0.421875q-0.046875 -0.234375 0.046875 -0.4375q0.109375 -0.21875 0.3125 -0.28125q0.21875 -0.078125 0.484375 0.09375q0.734375 0.53125 1.546875 0.75q0.8125 0.21875 1.84375 0.21875q1.4375 0 2.125 -0.53125q0.703125 -0.53125 0.703125 -1.40625q0 -0.71875 -0.515625 -1.125q-0.5 -0.421875 -1.671875 -0.65625l-1.671875 -0.34375q-1.5 -0.3125 -2.25 -1.03125q-0.734375 -0.734375 -0.734375 -1.953125q0 -1.015625 0.515625 -1.765625q0.515625 -0.75 1.4375 -1.15625q0.9375 -0.421875 2.15625 -0.421875q1.0 0 1.875 0.28125q0.875 0.28125 1.578125 0.84375q0.21875 0.171875 0.25 0.40625q0.046875 0.234375 -0.0625 0.421875q-0.109375 0.1875 -0.328125 0.25q-0.203125 0.046875 -0.484375 -0.125q-0.640625 -0.5 -1.34375 -0.703125q-0.6875 -0.203125 -1.5 -0.203125q-1.265625 0 -2.015625 0.578125q-0.75 0.578125 -0.75 1.546875q0 0.765625 0.46875 1.21875q0.46875 0.4375 1.546875 0.65625l1.65625 0.34375q1.609375 0.34375 2.390625 1.03125q0.78125 0.671875 0.78125 1.828125q0 0.953125 -0.515625 1.671875q-0.5 0.71875 -1.4375 1.125q-0.9375 0.390625 -2.203125 0.390625zm9.511902 0q-1.84375 0 -2.921875 -1.078125q-1.0625 -1.078125 -1.0625 -2.9375q0 -1.203125 0.484375 -2.109375q0.484375 -0.921875 1.3125 -1.421875q0.84375 -0.515625 1.953125 -0.515625q1.578125 0 2.46875 1.015625q0.90625 1.015625 0.90625 2.796875q0 0.5 -0.5625 0.5l-5.296875 0q0.0625 1.328125 0.765625 2.03125q0.703125 0.6875 1.953125 0.6875q0.53125 0 1.078125 -0.140625q0.546875 -0.140625 1.046875 -0.484375q0.375 -0.25 0.625 -0.09375q0.25 0.140625 0.25 0.4375q0.015625 0.296875 -0.328125 0.515625q-0.53125 0.390625 -1.265625 0.59375q-0.71875 0.203125 -1.40625 0.203125zm-0.203125 -7.09375q-1.109375 0 -1.75 0.6875q-0.640625 0.6875 -0.75 1.796875l4.71875 0q-0.046875 -1.171875 -0.625 -1.828125q-0.5625 -0.65625 -1.59375 -0.65625zm5.871399 7.0625q-0.65625 0 -0.65625 -0.671875l0 -6.671875q0 -0.65625 0.625 -0.65625q0.640625 0 0.640625 0.65625l0 0.84375q0.3125 -0.734375 0.984375 -1.125q0.671875 -0.390625 1.609375 -0.421875q0.5 -0.046875 0.53125 0.515625q0.046875 0.5625 -0.5625 0.625l-0.265625 0.03125q-1.09375 0.09375 -1.671875 0.703125q-0.578125 0.59375 -0.578125 1.625l0 3.875q0 0.671875 -0.65625 0.671875zm8.442383 0q-0.5625 0 -0.828125 -0.625l-2.765625 -6.453125q-0.15625 -0.375 -0.015625 -0.640625q0.140625 -0.28125 0.578125 -0.28125q0.4375 0 0.65625 0.515625l2.40625 5.90625l2.453125 -5.90625q0.109375 -0.28125 0.25 -0.390625q0.140625 -0.125 0.421875 -0.125q0.359375 0 0.484375 0.28125q0.140625 0.265625 0 0.625l-2.8125 6.46875q-0.25 0.625 -0.828125 0.625zm5.9900513 -9.75q-0.84375 0 -0.84375 -0.8125q0 -0.78125 0.84375 -0.78125q0.84375 0 0.84375 0.78125q0 0.8125 -0.84375 0.8125zm0 9.71875q-0.640625 0 -0.640625 -0.703125l0 -6.546875q0 -0.6875 0.640625 -0.6875q0.65625 0 0.65625 0.6875l0 6.546875q0 0.703125 -0.65625 0.703125zm6.368225 0.0625q-1.171875 0 -2.03125 -0.5q-0.84375 -0.5 -1.296875 -1.421875q-0.453125 -0.921875 -0.453125 -2.15625q0 -1.859375 1.0 -2.921875q1.015625 -1.0625 2.78125 -1.0625q0.578125 0 1.203125 0.1875q0.625 0.1875 1.125 0.59375q0.28125 0.203125 0.234375 0.484375q-0.03125 0.28125 -0.265625 0.4375q-0.234375 0.140625 -0.546875 -0.0625q-0.421875 -0.328125 -0.859375 -0.453125q-0.421875 -0.125 -0.8125 -0.125q-1.21875 0 -1.875 0.765625q-0.65625 0.75 -0.65625 2.171875q0 1.390625 0.65625 2.203125q0.65625 0.8125 1.875 0.8125q0.390625 0 0.8125 -0.125q0.4375 -0.140625 0.859375 -0.453125q0.3125 -0.21875 0.53125 -0.0625q0.234375 0.15625 0.25 0.453125q0.03125 0.28125 -0.234375 0.453125q-0.515625 0.421875 -1.125 0.609375q-0.59375 0.171875 -1.171875 0.171875zm7.451172 0q-1.84375 0 -2.921875 -1.078125q-1.0625 -1.078125 -1.0625 -2.9375q0 -1.203125 0.484375 -2.109375q0.484375 -0.921875 1.3125 -1.421875q0.84375 -0.515625 1.953125 -0.515625q1.578125 0 2.46875 1.015625q0.90625 1.015625 0.90625 2.796875q0 0.5 -0.5625 0.5l-5.296875 0q0.0625 1.328125 0.765625 2.03125q0.703125 0.6875 1.953125 0.6875q0.53125 0 1.078125 -0.140625q0.546875 -0.140625 1.046875 -0.484375q0.375 -0.25 0.625 -0.09375q0.25 0.140625 0.25 0.4375q0.015625 0.296875 -0.328125 0.515625q-0.53125 0.390625 -1.265625 0.59375q-0.71875 0.203125 -1.40625 0.203125zm-0.203125 -7.09375q-1.109375 0 -1.75 0.6875q-0.640625 0.6875 -0.75 1.796875l4.71875 0q-0.046875 -1.171875 -0.625 -1.828125q-0.5625 -0.65625 -1.59375 -0.65625z" fill-rule="nonzero"/><path fill="#000000" fill-opacity="0.0" d="m480.32663 281.42606l41.259857 0l0 51.716553l-41.259857 0z" fill-rule="evenodd"/><path fill="#999999" d="m492.65475 316.1667q-0.90625 0 -1.453125 -0.5625q-0.546875 -0.5625 -0.546875 -1.4375q0 -0.859375 0.546875 -1.40625q0.546875 -0.546875 1.453125 -0.546875q0.9375 0 1.453125 0.546875q0.515625 0.546875 0.515625 1.40625q0 0.875 -0.515625 1.4375q-0.515625 0.5625 -1.453125 0.5625zm6.6107483 0q-0.90625 0 -1.453125 -0.5625q-0.546875 -0.5625 -0.546875 -1.4375q0 -0.859375 0.546875 -1.40625q0.546875 -0.546875 1.453125 -0.546875q0.9375 0 1.453125 0.546875q0.515625 0.546875 0.515625 1.40625q0 0.875 -0.515625 1.4375q-0.515625 0.5625 -1.453125 0.5625zm6.610718 0q-0.90625 0 -1.453125 -0.5625q-0.546875 -0.5625 -0.546875 -1.4375q0 -0.859375 0.546875 -1.40625q0.546875 -0.546875 1.453125 -0.546875q0.9375 0 1.453125 0.546875q0.515625 0.546875 0.515625 1.40625q0 0.875 -0.515625 1.4375q-0.515625 0.5625 -1.453125 0.5625z" fill-rule="nonzero"/><path fill="#000000" fill-opacity="0.0" d="m662.33856 271.5013c0 7.5939026 0.01574707 11.392517 0.03149414 15.187775c0.01574707 3.795288 0.03149414 7.587219 0.03149414 15.174438" fill-rule="evenodd"/><path stroke="#6aa84f" stroke-width="2.0" stroke-linejoin="round" stroke-linecap="butt" stroke-dasharray="8.0,6.0" d="m662.33856 271.5013c0 7.5939026 0.01574707 11.392517 0.03149414 15.187775l0.011169434 3.1744385" fill-rule="evenodd"/><path fill="#6aa84f" stroke="#6aa84f" stroke-width="2.0" stroke-linecap="butt" d="m659.07776 289.86914l3.3188477 9.070587l3.288086 -9.081787z" fill-rule="evenodd"/></g></svg>